<?xml version="1.0" encoding="utf-8" standalone="no"?>
<!DOCTYPE svg PUBLIC "-//W3C//DTD SVG 1.1//EN"
  "http://www.w3.org/Graphics/SVG/1.1/DTD/svg11.dtd">
<svg xmlns:xlink="http://www.w3.org/1999/xlink" width="864pt" height="288pt" viewBox="0 0 864 288" xmlns="http://www.w3.org/2000/svg" version="1.1">
 <metadata>
  <rdf:RDF xmlns:dc="http://purl.org/dc/elements/1.1/" xmlns:cc="http://creativecommons.org/ns#" xmlns:rdf="http://www.w3.org/1999/02/22-rdf-syntax-ns#">
   <cc:Work>
    <dc:type rdf:resource="http://purl.org/dc/dcmitype/StillImage"/>
    <dc:date>2024-02-16T01:14:46.031787</dc:date>
    <dc:format>image/svg+xml</dc:format>
    <dc:creator>
     <cc:Agent>
      <dc:title>Matplotlib v3.8.2, https://matplotlib.org/</dc:title>
     </cc:Agent>
    </dc:creator>
   </cc:Work>
  </rdf:RDF>
 </metadata>
 <defs>
  <style type="text/css">*{stroke-linejoin: round; stroke-linecap: butt}</style>
 </defs>
 <g id="figure_1">
  <g id="patch_1">
   <path d="M 0 288 
L 864 288 
L 864 0 
L 0 0 
z
" style="fill: #ffffff"/>
  </g>
  <g id="axes_1">
   <g id="patch_2">
    <path d="M 108 256.32 
L 191.180124 256.32 
L 191.180124 34.56 
L 108 34.56 
z
" style="fill: #ffffff"/>
   </g>
   <g id="patch_3">
    <path d="M 128.795031 256.32 
L 149.590062 256.32 
L 149.590062 74.051507 
L 128.795031 74.051507 
z
" clip-path="url(#p6d711fbac5)" style="fill: #56b4e9; stroke: #000000; stroke-width: 0.8; stroke-linejoin: miter"/>
   </g>
   <g id="patch_4">
    <path d="M 149.590062 256.32 
L 170.385093 256.32 
L 170.385093 147.432329 
L 149.590062 147.432329 
z
" clip-path="url(#p6d711fbac5)" style="fill: #e69f00; stroke: #000000; stroke-width: 0.8; stroke-linejoin: miter"/>
   </g>
   <g id="matplotlib.axis_1">
    <g id="xtick_1">
     <g id="line2d_1">
      <defs>
       <path id="m17503e7626" d="M 0 0 
L 0 3.5 
" style="stroke: #323034; stroke-width: 0.8"/>
      </defs>
      <g>
       <use xlink:href="#m17503e7626" x="149.590062" y="256.32" style="fill: #323034; stroke: #323034; stroke-width: 0.8"/>
      </g>
     </g>
     <g id="text_1">
      <!-- SAQ -->
      <g style="fill: #323034" transform="translate(130.777928 286.085745) rotate(-45) scale(0.12 -0.12)">
       <defs>
        <path id="STIXGeneral-Regular-53" d="M 3002 2963 
L 2842 2963 
Q 2733 3360 2579 3565 
Q 2189 4064 1651 4064 
Q 1357 4064 1181 3894 
Q 1005 3725 1005 3456 
Q 1005 3328 1069 3206 
Q 1133 3085 1206 2998 
Q 1280 2912 1465 2784 
Q 1651 2656 1766 2589 
Q 1882 2522 2150 2362 
Q 2669 2061 2905 1763 
Q 3142 1466 3142 1107 
Q 3142 576 2771 243 
Q 2400 -90 1837 -90 
Q 1421 -90 1082 58 
Q 915 128 781 128 
Q 704 128 653 70 
Q 602 13 602 -83 
L 461 -83 
L 275 1274 
L 416 1274 
Q 845 141 1734 141 
Q 2074 141 2285 342 
Q 2496 544 2496 858 
Q 2496 1158 2310 1363 
Q 2003 1696 1235 2106 
Q 454 2522 454 3206 
Q 454 3718 768 4022 
Q 1082 4326 1568 4326 
Q 1907 4326 2240 4186 
Q 2413 4109 2522 4109 
Q 2688 4109 2726 4326 
L 2861 4326 
L 3002 2963 
z
" transform="scale(0.015625)"/>
        <path id="STIXGeneral-Regular-41" d="M 4525 0 
L 2893 0 
L 2893 122 
Q 3149 122 3245 179 
Q 3334 224 3334 333 
Q 3334 499 3213 781 
L 2950 1382 
L 1274 1382 
L 979 653 
Q 922 506 922 384 
Q 922 237 1027 179 
Q 1133 122 1370 122 
L 1370 0 
L 96 0 
L 96 122 
Q 365 147 486 316 
Q 608 486 902 1190 
L 2221 4314 
L 2349 4314 
L 3923 710 
Q 4064 378 4176 262 
Q 4288 147 4525 122 
L 4525 0 
z
M 2861 1645 
L 2118 3405 
L 1382 1645 
L 2861 1645 
z
" transform="scale(0.015625)"/>
        <path id="STIXGeneral-Regular-51" d="M 4486 -1133 
L 4179 -1133 
Q 2586 -1133 1958 -339 
L 1696 -6 
Q 1312 128 1097 265 
Q 883 403 704 640 
Q 218 1286 218 2125 
Q 218 3123 806 3724 
Q 1395 4326 2310 4326 
Q 3232 4326 3817 3721 
Q 4403 3117 4403 2131 
Q 4403 1568 4236 1158 
Q 4070 749 3712 410 
Q 3514 211 3293 115 
Q 3072 19 2726 -45 
Q 3066 -531 3491 -758 
Q 3917 -986 4486 -1018 
L 4486 -1133 
z
M 3674 2163 
Q 3674 2714 3520 3146 
Q 3366 3578 3091 3808 
Q 2746 4096 2291 4096 
Q 1741 4096 1370 3642 
Q 1178 3418 1062 3008 
Q 947 2598 947 2144 
Q 947 1158 1318 640 
Q 1472 416 1750 278 
Q 2029 141 2310 141 
Q 2867 141 3264 602 
Q 3456 819 3565 1248 
Q 3674 1677 3674 2163 
z
" transform="scale(0.015625)"/>
       </defs>
       <use xlink:href="#STIXGeneral-Regular-53"/>
       <use xlink:href="#STIXGeneral-Regular-41" x="55.599991"/>
       <use xlink:href="#STIXGeneral-Regular-51" x="127.799973"/>
      </g>
     </g>
    </g>
   </g>
   <g id="matplotlib.axis_2">
    <g id="ytick_1">
     <g id="line2d_2">
      <defs>
       <path id="m6f60b5c028" d="M 0 0 
L -3.5 0 
" style="stroke: #323034; stroke-width: 0.8"/>
      </defs>
      <g>
       <use xlink:href="#m6f60b5c028" x="108" y="256.32" style="fill: #323034; stroke: #323034; stroke-width: 0.8"/>
      </g>
     </g>
     <g id="text_2">
      <!-- $\mathdefault{0.00}$ -->
      <g style="fill: #323034" transform="translate(80 260.417813) scale(0.12 -0.12)">
       <defs>
        <path id="STIXGeneral-Regular-30" d="M 3046 2112 
Q 3046 1683 2963 1302 
Q 2880 922 2717 602 
Q 2554 282 2266 96 
Q 1978 -90 1600 -90 
Q 1210 -90 915 108 
Q 621 307 461 640 
Q 301 973 227 1350 
Q 154 1728 154 2150 
Q 154 2746 301 3222 
Q 448 3699 790 4012 
Q 1133 4326 1626 4326 
Q 2253 4326 2649 3712 
Q 3046 3098 3046 2112 
z
M 2432 2080 
Q 2432 3091 2217 3625 
Q 2003 4160 1587 4160 
Q 1190 4160 979 3622 
Q 768 3085 768 2106 
Q 768 1120 979 598 
Q 1190 77 1600 77 
Q 2003 77 2217 598 
Q 2432 1120 2432 2080 
z
" transform="scale(0.015625)"/>
        <path id="STIXGeneral-Regular-2e" d="M 1158 275 
Q 1158 134 1052 32 
Q 947 -70 800 -70 
Q 653 -70 550 32 
Q 448 134 448 281 
Q 448 429 553 534 
Q 659 640 806 640 
Q 947 640 1052 531 
Q 1158 422 1158 275 
z
" transform="scale(0.015625)"/>
       </defs>
       <use xlink:href="#STIXGeneral-Regular-30" transform="translate(0 0.40625)"/>
       <use xlink:href="#STIXGeneral-Regular-2e" transform="translate(49.999985 0.40625)"/>
       <use xlink:href="#STIXGeneral-Regular-30" transform="translate(74.999969 0.40625)"/>
       <use xlink:href="#STIXGeneral-Regular-30" transform="translate(124.999954 0.40625)"/>
      </g>
     </g>
    </g>
    <g id="ytick_2">
     <g id="line2d_3">
      <g>
       <use xlink:href="#m6f60b5c028" x="108" y="224.64" style="fill: #323034; stroke: #323034; stroke-width: 0.8"/>
      </g>
     </g>
     <g id="text_3">
      <!-- $\mathdefault{0.05}$ -->
      <g style="fill: #323034" transform="translate(80 228.737813) scale(0.12 -0.12)">
       <defs>
        <path id="STIXGeneral-Regular-35" d="M 2803 4358 
L 2573 3814 
Q 2534 3731 2400 3731 
L 1158 3731 
L 902 3187 
Q 1606 3053 1920 2896 
Q 2234 2739 2502 2368 
Q 2726 2061 2726 1555 
Q 2726 1094 2576 780 
Q 2426 467 2099 224 
Q 1664 -90 1011 -90 
Q 646 -90 422 19 
Q 198 128 198 307 
Q 198 550 486 550 
Q 717 550 960 352 
Q 1210 147 1414 147 
Q 1747 147 2012 480 
Q 2278 813 2278 1229 
Q 2278 1843 1850 2189 
Q 1293 2637 486 2637 
Q 410 2637 410 2688 
L 416 2720 
L 1114 4237 
L 2438 4237 
Q 2547 4237 2608 4269 
Q 2669 4301 2746 4403 
L 2803 4358 
z
" transform="scale(0.015625)"/>
       </defs>
       <use xlink:href="#STIXGeneral-Regular-30" transform="translate(0 0.203125)"/>
       <use xlink:href="#STIXGeneral-Regular-2e" transform="translate(49.999985 0.203125)"/>
       <use xlink:href="#STIXGeneral-Regular-30" transform="translate(74.999969 0.203125)"/>
       <use xlink:href="#STIXGeneral-Regular-35" transform="translate(124.999954 0.203125)"/>
      </g>
     </g>
    </g>
    <g id="ytick_3">
     <g id="line2d_4">
      <g>
       <use xlink:href="#m6f60b5c028" x="108" y="192.96" style="fill: #323034; stroke: #323034; stroke-width: 0.8"/>
      </g>
     </g>
     <g id="text_4">
      <!-- $\mathdefault{0.10}$ -->
      <g style="fill: #323034" transform="translate(80 197.057813) scale(0.12 -0.12)">
       <defs>
        <path id="STIXGeneral-Regular-31" d="M 2522 0 
L 755 0 
L 755 96 
Q 1107 115 1235 227 
Q 1363 339 1363 608 
L 1363 3482 
Q 1363 3795 1171 3795 
Q 1082 3795 883 3718 
L 710 3654 
L 710 3744 
L 1856 4326 
L 1914 4307 
L 1914 486 
Q 1914 275 2042 185 
Q 2170 96 2522 96 
L 2522 0 
z
" transform="scale(0.015625)"/>
       </defs>
       <use xlink:href="#STIXGeneral-Regular-30" transform="translate(0 0.40625)"/>
       <use xlink:href="#STIXGeneral-Regular-2e" transform="translate(49.999985 0.40625)"/>
       <use xlink:href="#STIXGeneral-Regular-31" transform="translate(74.999969 0.40625)"/>
       <use xlink:href="#STIXGeneral-Regular-30" transform="translate(124.999954 0.40625)"/>
      </g>
     </g>
    </g>
    <g id="ytick_4">
     <g id="line2d_5">
      <g>
       <use xlink:href="#m6f60b5c028" x="108" y="161.28" style="fill: #323034; stroke: #323034; stroke-width: 0.8"/>
      </g>
     </g>
     <g id="text_5">
      <!-- $\mathdefault{0.15}$ -->
      <g style="fill: #323034" transform="translate(80 165.377813) scale(0.12 -0.12)">
       <use xlink:href="#STIXGeneral-Regular-30" transform="translate(0 0.203125)"/>
       <use xlink:href="#STIXGeneral-Regular-2e" transform="translate(49.999985 0.203125)"/>
       <use xlink:href="#STIXGeneral-Regular-31" transform="translate(74.999969 0.203125)"/>
       <use xlink:href="#STIXGeneral-Regular-35" transform="translate(124.999954 0.203125)"/>
      </g>
     </g>
    </g>
    <g id="ytick_5">
     <g id="line2d_6">
      <g>
       <use xlink:href="#m6f60b5c028" x="108" y="129.6" style="fill: #323034; stroke: #323034; stroke-width: 0.8"/>
      </g>
     </g>
     <g id="text_6">
      <!-- $\mathdefault{0.20}$ -->
      <g style="fill: #323034" transform="translate(80 133.697813) scale(0.12 -0.12)">
       <defs>
        <path id="STIXGeneral-Regular-32" d="M 3034 877 
L 2688 0 
L 186 0 
L 186 77 
L 1325 1286 
Q 1773 1754 1965 2144 
Q 2157 2534 2157 2950 
Q 2157 3379 1920 3616 
Q 1683 3853 1267 3853 
Q 922 3853 720 3673 
Q 518 3494 326 3021 
L 192 3053 
Q 301 3648 630 3987 
Q 960 4326 1523 4326 
Q 2054 4326 2380 4006 
Q 2707 3686 2707 3200 
Q 2707 2477 1888 1613 
L 832 486 
L 2330 486 
Q 2541 486 2665 569 
Q 2790 653 2944 915 
L 3034 877 
z
" transform="scale(0.015625)"/>
       </defs>
       <use xlink:href="#STIXGeneral-Regular-30" transform="translate(0 0.40625)"/>
       <use xlink:href="#STIXGeneral-Regular-2e" transform="translate(49.999985 0.40625)"/>
       <use xlink:href="#STIXGeneral-Regular-32" transform="translate(74.999969 0.40625)"/>
       <use xlink:href="#STIXGeneral-Regular-30" transform="translate(124.999954 0.40625)"/>
      </g>
     </g>
    </g>
    <g id="ytick_6">
     <g id="line2d_7">
      <g>
       <use xlink:href="#m6f60b5c028" x="108" y="97.92" style="fill: #323034; stroke: #323034; stroke-width: 0.8"/>
      </g>
     </g>
     <g id="text_7">
      <!-- $\mathdefault{0.25}$ -->
      <g style="fill: #323034" transform="translate(80 102.017813) scale(0.12 -0.12)">
       <use xlink:href="#STIXGeneral-Regular-30" transform="translate(0 0.203125)"/>
       <use xlink:href="#STIXGeneral-Regular-2e" transform="translate(49.999985 0.203125)"/>
       <use xlink:href="#STIXGeneral-Regular-32" transform="translate(74.999969 0.203125)"/>
       <use xlink:href="#STIXGeneral-Regular-35" transform="translate(124.999954 0.203125)"/>
      </g>
     </g>
    </g>
    <g id="ytick_7">
     <g id="line2d_8">
      <g>
       <use xlink:href="#m6f60b5c028" x="108" y="66.24" style="fill: #323034; stroke: #323034; stroke-width: 0.8"/>
      </g>
     </g>
     <g id="text_8">
      <!-- $\mathdefault{0.30}$ -->
      <g style="fill: #323034" transform="translate(80 70.337812) scale(0.12 -0.12)">
       <defs>
        <path id="STIXGeneral-Regular-33" d="M 390 3264 
L 288 3290 
Q 435 3770 748 4048 
Q 1062 4326 1542 4326 
Q 1990 4326 2265 4083 
Q 2541 3840 2541 3450 
Q 2541 2925 1946 2566 
Q 2298 2413 2477 2227 
Q 2758 1914 2758 1402 
Q 2758 890 2464 506 
Q 2246 211 1840 60 
Q 1434 -90 979 -90 
Q 262 -90 262 275 
Q 262 378 339 442 
Q 416 506 525 506 
Q 685 506 915 339 
Q 1197 141 1466 141 
Q 1818 141 2058 425 
Q 2298 710 2298 1120 
Q 2298 1856 1632 2048 
Q 1434 2112 979 2112 
L 979 2202 
Q 1338 2323 1517 2432 
Q 2035 2726 2035 3290 
Q 2035 3610 1852 3776 
Q 1670 3942 1344 3942 
Q 768 3942 390 3264 
z
" transform="scale(0.015625)"/>
       </defs>
       <use xlink:href="#STIXGeneral-Regular-30" transform="translate(0 0.40625)"/>
       <use xlink:href="#STIXGeneral-Regular-2e" transform="translate(49.999985 0.40625)"/>
       <use xlink:href="#STIXGeneral-Regular-33" transform="translate(74.999969 0.40625)"/>
       <use xlink:href="#STIXGeneral-Regular-30" transform="translate(124.999954 0.40625)"/>
      </g>
     </g>
    </g>
    <g id="ytick_8">
     <g id="line2d_9">
      <g>
       <use xlink:href="#m6f60b5c028" x="108" y="34.56" style="fill: #323034; stroke: #323034; stroke-width: 0.8"/>
      </g>
     </g>
     <g id="text_9">
      <!-- $\mathdefault{0.35}$ -->
      <g style="fill: #323034" transform="translate(80 38.657813) scale(0.12 -0.12)">
       <use xlink:href="#STIXGeneral-Regular-30" transform="translate(0 0.203125)"/>
       <use xlink:href="#STIXGeneral-Regular-2e" transform="translate(49.999985 0.203125)"/>
       <use xlink:href="#STIXGeneral-Regular-33" transform="translate(74.999969 0.203125)"/>
       <use xlink:href="#STIXGeneral-Regular-35" transform="translate(124.999954 0.203125)"/>
      </g>
     </g>
    </g>
    <g id="text_10">
     <!-- SAQ Score -->
     <g transform="translate(74.395625 172.602188) rotate(-90) scale(0.12 -0.12)">
      <defs>
       <path id="STIXGeneral-Regular-20" transform="scale(0.015625)"/>
       <path id="STIXGeneral-Regular-63" d="M 2547 998 
L 2637 941 
Q 2362 403 2112 205 
Q 1786 -64 1376 -64 
Q 845 -64 502 336 
Q 160 736 160 1357 
Q 160 2170 698 2618 
Q 1094 2944 1562 2944 
Q 1965 2944 2256 2749 
Q 2547 2554 2547 2285 
Q 2547 2176 2457 2096 
Q 2368 2016 2246 2016 
Q 2022 2016 1939 2310 
L 1901 2451 
Q 1850 2630 1773 2694 
Q 1696 2758 1523 2758 
Q 1133 2758 893 2451 
Q 653 2144 653 1645 
Q 653 1094 928 745 
Q 1203 397 1645 397 
Q 1920 397 2118 528 
Q 2317 659 2547 998 
z
" transform="scale(0.015625)"/>
       <path id="STIXGeneral-Regular-6f" d="M 3008 1478 
Q 3008 806 2608 371 
Q 2208 -64 1568 -64 
Q 979 -64 582 368 
Q 186 800 186 1459 
Q 186 2125 582 2534 
Q 979 2944 1626 2944 
Q 2221 2944 2614 2537 
Q 3008 2131 3008 1478 
z
M 2432 1306 
Q 2432 2035 2112 2445 
Q 1856 2765 1504 2765 
Q 1171 2765 966 2493 
Q 762 2221 762 1747 
Q 762 928 1101 435 
Q 1318 115 1677 115 
Q 2029 115 2230 432 
Q 2432 749 2432 1306 
z
" transform="scale(0.015625)"/>
       <path id="STIXGeneral-Regular-72" d="M 1024 2931 
L 1024 2342 
Q 1267 2688 1430 2816 
Q 1594 2944 1792 2944 
Q 1958 2944 2051 2854 
Q 2144 2765 2144 2605 
Q 2144 2470 2077 2393 
Q 2010 2317 1894 2317 
Q 1773 2317 1638 2445 
Q 1536 2541 1472 2541 
Q 1338 2541 1181 2355 
Q 1024 2170 1024 2016 
L 1024 576 
Q 1024 301 1133 205 
Q 1242 109 1568 96 
L 1568 0 
L 32 0 
L 32 96 
Q 339 154 412 224 
Q 486 294 486 538 
L 486 2138 
Q 486 2349 438 2435 
Q 390 2522 269 2522 
Q 166 2522 45 2496 
L 45 2598 
Q 448 2726 992 2944 
L 1024 2931 
z
" transform="scale(0.015625)"/>
       <path id="STIXGeneral-Regular-65" d="M 2611 1050 
L 2714 1005 
Q 2330 -64 1376 -64 
Q 813 -64 486 329 
Q 160 723 160 1389 
Q 160 2074 525 2509 
Q 890 2944 1485 2944 
Q 2061 2944 2374 2502 
Q 2560 2246 2592 1773 
L 621 1773 
Q 646 1370 700 1158 
Q 755 947 915 730 
Q 1184 378 1626 378 
Q 1939 378 2153 531 
Q 2368 685 2611 1050 
z
M 634 1978 
L 1939 1978 
Q 1882 2381 1750 2547 
Q 1619 2714 1312 2714 
Q 1043 2714 864 2525 
Q 685 2336 634 1978 
z
" transform="scale(0.015625)"/>
      </defs>
      <use xlink:href="#STIXGeneral-Regular-53"/>
      <use xlink:href="#STIXGeneral-Regular-41" x="55.599991"/>
      <use xlink:href="#STIXGeneral-Regular-51" x="127.799973"/>
      <use xlink:href="#STIXGeneral-Regular-20" x="199.999954"/>
      <use xlink:href="#STIXGeneral-Regular-53" x="224.999939"/>
      <use xlink:href="#STIXGeneral-Regular-63" x="280.59993"/>
      <use xlink:href="#STIXGeneral-Regular-6f" x="324.999924"/>
      <use xlink:href="#STIXGeneral-Regular-72" x="374.999908"/>
      <use xlink:href="#STIXGeneral-Regular-65" x="408.299896"/>
     </g>
    </g>
   </g>
   <g id="patch_5">
    <path d="M 108 256.32 
L 108 34.56 
" style="fill: none; stroke: #000000; stroke-width: 0.6; stroke-linejoin: miter; stroke-linecap: square"/>
   </g>
   <g id="patch_6">
    <path d="M 108 256.32 
L 191.180124 256.32 
" style="fill: none; stroke: #000000; stroke-width: 0.6; stroke-linejoin: miter; stroke-linecap: square"/>
   </g>
   <g id="text_11">
    <!-- Δ -40% -->
    <g transform="translate(163.442949 93.634718) scale(0.1 -0.1)">
     <defs>
      <path id="STIXGeneral-Regular-394" d="M 4320 0 
L 307 0 
L 2221 4314 
L 2349 4314 
L 4320 0 
z
M 3354 589 
L 2118 3405 
L 870 589 
L 3354 589 
z
" transform="scale(0.015625)"/>
      <path id="STIXGeneral-Regular-2d" d="M 1824 1242 
L 250 1242 
L 250 1645 
L 1824 1645 
L 1824 1242 
z
" transform="scale(0.015625)"/>
      <path id="STIXGeneral-Regular-34" d="M 3027 1069 
L 2368 1069 
L 2368 0 
L 1869 0 
L 1869 1069 
L 77 1069 
L 77 1478 
L 2086 4326 
L 2368 4326 
L 2368 1478 
L 3027 1478 
L 3027 1069 
z
M 1869 1478 
L 1869 3674 
L 333 1478 
L 1869 1478 
z
" transform="scale(0.015625)"/>
      <path id="STIXGeneral-Regular-25" d="M 4390 1363 
Q 4390 781 4070 329 
Q 3750 -122 3341 -122 
Q 3014 -122 2790 134 
Q 2566 390 2566 762 
Q 2566 1274 2940 1693 
Q 3315 2112 3776 2112 
Q 4070 2112 4230 1917 
Q 4390 1722 4390 1363 
z
M 4243 1376 
Q 4243 1626 4131 1779 
Q 4019 1933 3840 1933 
Q 3654 1933 3526 1786 
Q 3315 1562 3171 1187 
Q 3027 813 3027 486 
Q 3027 301 3129 176 
Q 3232 51 3386 51 
Q 3718 51 3980 457 
Q 4243 864 4243 1376 
z
M 3974 4518 
L 1222 -115 
L 922 -115 
L 3443 4096 
Q 3264 3891 3094 3811 
Q 2925 3731 2669 3731 
Q 2445 3731 2182 3821 
Q 2208 3674 2208 3539 
Q 2208 3206 2067 2873 
Q 1926 2541 1696 2323 
Q 1453 2086 1146 2086 
Q 826 2086 608 2339 
Q 390 2592 390 2963 
Q 390 3507 761 3916 
Q 1133 4326 1626 4326 
Q 1792 4326 2010 4147 
Q 2310 3898 2624 3898 
Q 2918 3898 3084 3994 
Q 3251 4090 3693 4518 
L 3974 4518 
z
M 2054 3642 
Q 2054 3782 2025 3833 
Q 1997 3885 1894 3936 
Q 1747 4006 1613 4154 
Q 1414 4058 1331 3984 
Q 1248 3910 1152 3750 
Q 845 3264 845 2707 
Q 845 2509 944 2384 
Q 1043 2259 1210 2259 
Q 1549 2259 1801 2675 
Q 2054 3091 2054 3642 
z
" transform="scale(0.015625)"/>
     </defs>
     <use xlink:href="#STIXGeneral-Regular-394"/>
     <use xlink:href="#STIXGeneral-Regular-20" x="72.199982"/>
     <use xlink:href="#STIXGeneral-Regular-2d" x="97.199966"/>
     <use xlink:href="#STIXGeneral-Regular-34" x="130.499954"/>
     <use xlink:href="#STIXGeneral-Regular-30" x="180.499939"/>
     <use xlink:href="#STIXGeneral-Regular-25" x="230.499924"/>
    </g>
   </g>
   <g id="patch_7">
    <path d="M 157.908075 144.535874 
Q 157.908075 110.740747 157.908075 76.945621 
" style="fill: none; stroke: #000000; stroke-width: 0.8; stroke-linecap: round"/>
    <path d="M 159.908075 140.535874 
L 157.908075 144.535874 
L 155.908075 140.535874 
z
" style="stroke: #000000; stroke-width: 0.8; stroke-linecap: round"/>
    <path d="M 155.908075 80.945621 
L 157.908075 76.945621 
L 159.908075 80.945621 
z
" style="stroke: #000000; stroke-width: 0.8; stroke-linecap: round"/>
   </g>
   <g id="legend_1">
    <g id="patch_8">
     <path d="M 122.300437 65.900625 
L 184.180124 65.900625 
Q 186.180124 65.900625 186.180124 63.900625 
L 186.180124 41.56 
Q 186.180124 39.56 184.180124 39.56 
L 122.300437 39.56 
Q 120.300437 39.56 120.300437 41.56 
L 120.300437 63.900625 
Q 120.300437 65.900625 122.300437 65.900625 
z
" style="fill: #ffffff; opacity: 0.8; stroke: #e6e6e6; stroke-width: 0.8; stroke-linejoin: miter"/>
    </g>
    <g id="patch_9">
     <path d="M 122.300437 48.56 
L 142.300437 48.56 
L 142.300437 41.56 
L 122.300437 41.56 
z
" style="fill: #56b4e9; stroke: #000000; stroke-width: 0.8; stroke-linejoin: miter"/>
    </g>
    <g id="text_12">
     <!-- Llama-2 -->
     <g style="fill: #323034" transform="translate(150.300437 48.56) scale(0.1 -0.1)">
      <defs>
       <path id="STIXGeneral-Regular-4c" d="M 3827 1114 
L 3520 0 
L 77 0 
L 77 122 
Q 429 141 531 256 
Q 634 371 634 736 
L 634 3494 
Q 634 3872 541 3981 
Q 448 4090 77 4115 
L 77 4237 
L 1888 4237 
L 1888 4115 
Q 1498 4090 1392 3984 
Q 1286 3878 1286 3507 
L 1286 538 
Q 1286 358 1398 304 
Q 1510 250 1862 250 
L 2310 250 
Q 3085 250 3392 640 
Q 3520 813 3661 1114 
L 3827 1114 
z
" transform="scale(0.015625)"/>
       <path id="STIXGeneral-Regular-6c" d="M 1645 0 
L 134 0 
L 134 96 
Q 435 122 531 221 
Q 627 320 627 589 
L 627 3590 
Q 627 3821 569 3910 
Q 512 4000 358 4000 
Q 224 4000 122 3987 
L 122 4090 
Q 730 4237 1133 4371 
L 1165 4346 
L 1165 557 
Q 1165 288 1254 201 
Q 1344 115 1645 96 
L 1645 0 
z
" transform="scale(0.015625)"/>
       <path id="STIXGeneral-Regular-61" d="M 2829 422 
L 2829 243 
Q 2586 -64 2253 -64 
Q 1888 -64 1843 403 
L 1837 403 
Q 1427 -64 909 -64 
Q 608 -64 422 112 
Q 237 288 237 602 
Q 237 1050 685 1350 
Q 992 1555 1837 1869 
L 1837 2214 
Q 1837 2502 1699 2646 
Q 1562 2790 1338 2790 
Q 1146 2790 1018 2697 
Q 890 2605 890 2477 
Q 890 2419 909 2348 
Q 928 2278 928 2208 
Q 928 2112 841 2029 
Q 755 1946 634 1946 
Q 525 1946 441 2029 
Q 358 2112 358 2240 
Q 358 2547 685 2752 
Q 986 2944 1421 2944 
Q 1939 2944 2176 2656 
Q 2291 2522 2323 2384 
Q 2355 2246 2355 1946 
L 2355 723 
Q 2355 301 2554 301 
Q 2682 301 2829 422 
z
M 1837 813 
L 1837 1715 
Q 1248 1510 1018 1293 
Q 800 1094 800 800 
Q 800 557 921 432 
Q 1043 307 1242 307 
Q 1453 307 1613 410 
Q 1747 506 1792 589 
Q 1837 672 1837 813 
z
" transform="scale(0.015625)"/>
       <path id="STIXGeneral-Regular-6d" d="M 4960 0 
L 3565 0 
L 3565 96 
Q 3834 122 3907 208 
Q 3981 294 3981 576 
L 3981 1894 
Q 3981 2278 3869 2444 
Q 3757 2611 3488 2611 
Q 3264 2611 3107 2521 
Q 2950 2432 2803 2221 
L 2803 608 
Q 2803 301 2896 201 
Q 2989 102 3264 96 
L 3264 0 
L 1830 0 
L 1830 96 
Q 2112 115 2189 188 
Q 2266 262 2266 550 
L 2266 1901 
Q 2266 2611 1850 2611 
Q 1670 2611 1468 2531 
Q 1267 2451 1171 2336 
Q 1088 2240 1088 2227 
L 1088 448 
Q 1088 243 1177 176 
Q 1267 109 1523 96 
L 1523 0 
L 102 0 
L 102 96 
Q 371 102 460 195 
Q 550 288 550 563 
L 550 2150 
Q 550 2387 499 2480 
Q 448 2573 326 2573 
Q 230 2573 122 2547 
L 122 2656 
Q 557 2778 1011 2944 
L 1062 2925 
L 1062 2451 
L 1075 2451 
Q 1363 2752 1584 2848 
Q 1805 2944 2054 2944 
Q 2560 2944 2733 2406 
Q 3232 2944 3776 2944 
Q 4518 2944 4518 1792 
L 4518 493 
Q 4518 282 4582 202 
Q 4646 122 4794 109 
L 4960 96 
L 4960 0 
z
" transform="scale(0.015625)"/>
      </defs>
      <use xlink:href="#STIXGeneral-Regular-4c"/>
      <use xlink:href="#STIXGeneral-Regular-6c" x="61.099991"/>
      <use xlink:href="#STIXGeneral-Regular-61" x="88.899979"/>
      <use xlink:href="#STIXGeneral-Regular-6d" x="133.299973"/>
      <use xlink:href="#STIXGeneral-Regular-61" x="211.09996"/>
      <use xlink:href="#STIXGeneral-Regular-2d" x="255.499954"/>
      <use xlink:href="#STIXGeneral-Regular-32" x="288.799942"/>
     </g>
    </g>
    <g id="patch_10">
     <path d="M 122.300437 61.730312 
L 142.300437 61.730312 
L 142.300437 54.730312 
L 122.300437 54.730312 
z
" style="fill: #e69f00; stroke: #000000; stroke-width: 0.8; stroke-linejoin: miter"/>
    </g>
    <g id="text_13">
     <!-- WHP -->
     <g style="fill: #323034" transform="translate(150.300437 61.730312) scale(0.1 -0.1)">
      <defs>
       <path id="STIXGeneral-Regular-57" d="M 5965 4237 
L 5965 4115 
Q 5709 4064 5616 3990 
Q 5523 3917 5434 3667 
Q 4704 1709 4128 -70 
L 4032 -70 
Q 3642 1011 3008 2637 
L 2022 -70 
L 1926 -70 
Q 1709 576 1277 1753 
Q 845 2931 698 3347 
Q 538 3808 406 3958 
Q 275 4109 32 4115 
L 32 4237 
L 1594 4237 
L 1594 4115 
Q 1357 4109 1270 4064 
Q 1184 4019 1184 3917 
Q 1184 3808 1254 3616 
L 2176 1210 
L 2842 3021 
L 2662 3501 
Q 2509 3917 2400 4013 
Q 2291 4109 2010 4115 
L 2010 4237 
L 3706 4237 
L 3706 4115 
Q 3213 4102 3213 3891 
Q 3213 3808 3322 3520 
L 4237 1190 
L 5043 3360 
Q 5152 3667 5152 3853 
Q 5152 4109 4704 4115 
L 4704 4237 
L 5965 4237 
z
" transform="scale(0.015625)"/>
       <path id="STIXGeneral-Regular-48" d="M 4499 0 
L 2714 0 
L 2714 122 
Q 3085 147 3181 265 
Q 3277 384 3277 794 
L 3277 2016 
L 1338 2016 
L 1338 723 
Q 1338 371 1440 256 
Q 1542 141 1894 122 
L 1901 0 
L 115 0 
L 115 122 
Q 493 147 589 259 
Q 685 371 685 781 
L 685 3507 
Q 685 3878 585 3980 
Q 486 4083 115 4115 
L 115 4237 
L 1907 4237 
L 1907 4115 
Q 1549 4083 1443 3977 
Q 1338 3872 1338 3507 
L 1338 2298 
L 3277 2298 
L 3277 3507 
Q 3277 3878 3177 3980 
Q 3078 4083 2707 4115 
L 2707 4237 
L 4499 4237 
L 4499 4115 
Q 4141 4083 4035 3977 
Q 3930 3872 3930 3507 
L 3930 710 
Q 3930 371 4035 259 
Q 4141 147 4499 122 
L 4499 0 
z
" transform="scale(0.015625)"/>
       <path id="STIXGeneral-Regular-50" d="M 102 4237 
L 1760 4237 
Q 2669 4237 3149 3834 
Q 3469 3565 3469 3072 
Q 3469 2560 3104 2234 
Q 2835 1990 2553 1916 
Q 2272 1843 1734 1843 
Q 1549 1843 1293 1862 
L 1293 717 
Q 1293 352 1398 246 
Q 1504 141 1894 122 
L 1894 0 
L 102 0 
L 102 122 
Q 474 147 557 256 
Q 640 365 640 781 
L 640 3526 
Q 640 3885 547 3987 
Q 454 4090 102 4115 
L 102 4237 
z
M 1293 3770 
L 1293 2118 
Q 1510 2099 1683 2099 
Q 2202 2099 2486 2352 
Q 2771 2605 2771 3040 
Q 2771 3558 2476 3779 
Q 2182 4000 1517 4000 
Q 1382 4000 1337 3952 
Q 1293 3904 1293 3770 
z
" transform="scale(0.015625)"/>
      </defs>
      <use xlink:href="#STIXGeneral-Regular-57"/>
      <use xlink:href="#STIXGeneral-Regular-48" x="94.399994"/>
      <use xlink:href="#STIXGeneral-Regular-50" x="166.599976"/>
     </g>
    </g>
   </g>
  </g>
  <g id="axes_2">
   <g id="patch_11">
    <path d="M 220.293168 256.32 
L 386.653416 256.32 
L 386.653416 34.56 
L 220.293168 34.56 
z
" style="fill: #ffffff"/>
   </g>
   <g id="patch_12">
    <path d="M 241.088199 422.64 
L 261.88323 422.64 
L 261.88323 170.627405 
L 241.088199 170.627405 
z
" clip-path="url(#p8979a607d4)" style="fill: #56b4e9; stroke: #000000; stroke-width: 0.8; stroke-linejoin: miter"/>
   </g>
   <g id="patch_13">
    <path d="M 324.268323 422.64 
L 345.063354 422.64 
L 345.063354 77.290133 
L 324.268323 77.290133 
z
" clip-path="url(#p8979a607d4)" style="fill: #56b4e9; stroke: #000000; stroke-width: 0.8; stroke-linejoin: miter"/>
   </g>
   <g id="patch_14">
    <path d="M 261.88323 422.64 
L 282.678261 422.64 
L 282.678261 182.761257 
L 261.88323 182.761257 
z
" clip-path="url(#p8979a607d4)" style="fill: #e69f00; stroke: #000000; stroke-width: 0.8; stroke-linejoin: miter"/>
   </g>
   <g id="patch_15">
    <path d="M 345.063354 422.64 
L 365.858385 422.64 
L 365.858385 107.324051 
L 345.063354 107.324051 
z
" clip-path="url(#p8979a607d4)" style="fill: #e69f00; stroke: #000000; stroke-width: 0.8; stroke-linejoin: miter"/>
   </g>
   <g id="matplotlib.axis_3">
    <g id="xtick_2">
     <g id="line2d_10">
      <g>
       <use xlink:href="#m17503e7626" x="261.88323" y="256.32" style="fill: #323034; stroke: #323034; stroke-width: 0.8"/>
      </g>
     </g>
     <g id="text_14">
      <!-- Hard -->
      <g style="fill: #323034" transform="translate(243.079051 286.07779) rotate(-45) scale(0.12 -0.12)">
       <defs>
        <path id="STIXGeneral-Regular-64" d="M 3142 269 
L 2202 -64 
L 2176 -45 
L 2176 365 
Q 1869 -64 1357 -64 
Q 826 -64 499 317 
Q 173 698 173 1312 
Q 173 1990 563 2467 
Q 954 2944 1504 2944 
Q 1850 2944 2176 2669 
L 2176 3667 
Q 2176 3866 2118 3930 
Q 2061 3994 1882 3994 
Q 1792 3994 1741 3987 
L 1741 4090 
Q 2323 4243 2682 4371 
L 2714 4358 
L 2714 730 
Q 2714 506 2768 435 
Q 2822 365 2995 365 
Q 3034 365 3142 371 
L 3142 269 
z
M 2176 653 
L 2176 2125 
Q 2176 2381 1981 2573 
Q 1786 2765 1523 2765 
Q 1158 2765 940 2438 
Q 723 2112 723 1568 
Q 723 979 963 624 
Q 1203 269 1606 269 
Q 1907 269 2080 474 
Q 2176 582 2176 653 
z
" transform="scale(0.015625)"/>
       </defs>
       <use xlink:href="#STIXGeneral-Regular-48"/>
       <use xlink:href="#STIXGeneral-Regular-61" x="72.199982"/>
       <use xlink:href="#STIXGeneral-Regular-72" x="116.599976"/>
       <use xlink:href="#STIXGeneral-Regular-64" x="149.899963"/>
      </g>
     </g>
    </g>
    <g id="xtick_3">
     <g id="line2d_11">
      <g>
       <use xlink:href="#m17503e7626" x="345.063354" y="256.32" style="fill: #323034; stroke: #323034; stroke-width: 0.8"/>
      </g>
     </g>
     <g id="text_15">
      <!-- Easy -->
      <g style="fill: #323034" transform="translate(326.717911 285.603144) rotate(-45) scale(0.12 -0.12)">
       <defs>
        <path id="STIXGeneral-Regular-45" d="M 3821 1082 
L 3526 0 
L 77 0 
L 77 122 
Q 442 147 538 252 
Q 634 358 634 730 
L 634 3520 
Q 634 3878 534 3987 
Q 435 4096 77 4115 
L 77 4237 
L 3469 4237 
L 3494 3322 
L 3334 3322 
Q 3264 3750 3085 3872 
Q 2906 3994 2349 3994 
L 1510 3994 
Q 1370 3994 1328 3952 
Q 1286 3910 1286 3763 
L 1286 2355 
L 2253 2355 
Q 2656 2355 2787 2470 
Q 2918 2586 2976 2970 
L 3123 2970 
L 3123 1472 
L 2976 1472 
Q 2918 1875 2790 1984 
Q 2662 2093 2253 2093 
L 1286 2093 
L 1286 538 
Q 1286 346 1420 291 
Q 1555 237 1933 237 
L 2163 237 
Q 2848 237 3136 403 
Q 3424 570 3642 1082 
L 3821 1082 
z
" transform="scale(0.015625)"/>
        <path id="STIXGeneral-Regular-73" d="M 998 1926 
L 1664 1523 
Q 1984 1331 2105 1164 
Q 2227 998 2227 736 
Q 2227 416 1961 176 
Q 1696 -64 1331 -64 
Q 1030 -64 864 -6 
Q 691 51 570 51 
Q 461 51 416 -26 
L 333 -26 
L 333 979 
L 435 979 
Q 538 512 730 294 
Q 922 77 1248 77 
Q 1485 77 1632 211 
Q 1779 346 1779 550 
Q 1779 845 1440 1030 
L 1094 1222 
Q 326 1651 326 2150 
Q 326 2522 566 2730 
Q 806 2938 1210 2938 
Q 1491 2938 1638 2867 
Q 1754 2816 1818 2816 
Q 1862 2816 1920 2880 
L 1990 2880 
L 2022 2010 
L 1926 2010 
Q 1818 2445 1654 2621 
Q 1491 2797 1203 2797 
Q 986 2797 854 2688 
Q 723 2579 723 2362 
Q 723 2253 796 2128 
Q 870 2003 998 1926 
z
" transform="scale(0.015625)"/>
        <path id="STIXGeneral-Regular-79" d="M 3040 2880 
L 3040 2784 
Q 2925 2771 2854 2700 
Q 2784 2630 2720 2458 
L 1760 -160 
Q 1510 -838 1257 -1116 
Q 1005 -1395 640 -1395 
Q 435 -1395 313 -1289 
Q 192 -1184 192 -1024 
Q 192 -902 272 -816 
Q 352 -730 467 -730 
Q 653 -730 800 -813 
Q 883 -858 966 -858 
Q 1101 -858 1286 -576 
Q 1376 -448 1459 -211 
Q 1542 26 1542 115 
Q 1542 198 1274 762 
L 429 2566 
Q 346 2752 90 2790 
L 90 2880 
L 1402 2880 
L 1402 2784 
Q 1197 2778 1117 2739 
Q 1037 2701 1037 2611 
Q 1037 2541 1120 2349 
L 1837 749 
L 2458 2515 
Q 2483 2573 2483 2630 
Q 2483 2784 2189 2784 
L 2189 2880 
L 3040 2880 
z
" transform="scale(0.015625)"/>
       </defs>
       <use xlink:href="#STIXGeneral-Regular-45"/>
       <use xlink:href="#STIXGeneral-Regular-61" x="61.099991"/>
       <use xlink:href="#STIXGeneral-Regular-73" x="105.499985"/>
       <use xlink:href="#STIXGeneral-Regular-79" x="144.399979"/>
      </g>
     </g>
    </g>
   </g>
   <g id="matplotlib.axis_4">
    <g id="ytick_9">
     <g id="line2d_12">
      <g>
       <use xlink:href="#m6f60b5c028" x="220.293168" y="237.84" style="fill: #323034; stroke: #323034; stroke-width: 0.8"/>
      </g>
     </g>
     <g id="text_16">
      <!-- $\mathdefault{0.5}$ -->
      <g style="fill: #323034" transform="translate(198.293168 241.937813) scale(0.12 -0.12)">
       <use xlink:href="#STIXGeneral-Regular-30" transform="translate(0 0.203125)"/>
       <use xlink:href="#STIXGeneral-Regular-2e" transform="translate(49.999985 0.203125)"/>
       <use xlink:href="#STIXGeneral-Regular-35" transform="translate(74.999969 0.203125)"/>
      </g>
     </g>
    </g>
    <g id="ytick_10">
     <g id="line2d_13">
      <g>
       <use xlink:href="#m6f60b5c028" x="220.293168" y="200.88" style="fill: #323034; stroke: #323034; stroke-width: 0.8"/>
      </g>
     </g>
     <g id="text_17">
      <!-- $\mathdefault{0.6}$ -->
      <g style="fill: #323034" transform="translate(198.293168 204.977813) scale(0.12 -0.12)">
       <defs>
        <path id="STIXGeneral-Regular-36" d="M 2854 4378 
L 2867 4275 
Q 2112 4154 1606 3664 
Q 1101 3174 973 2451 
Q 1344 2739 1786 2739 
Q 2349 2739 2672 2380 
Q 2995 2022 2995 1402 
Q 2995 774 2669 378 
Q 2291 -90 1651 -90 
Q 870 -90 518 557 
Q 218 1107 218 1786 
Q 218 2835 915 3552 
Q 1312 3962 1731 4131 
Q 2150 4301 2854 4378 
z
M 2419 1203 
Q 2419 2445 1555 2445 
Q 1235 2445 1024 2275 
Q 813 2106 813 1702 
Q 813 954 1046 522 
Q 1280 90 1722 90 
Q 2061 90 2240 394 
Q 2419 698 2419 1203 
z
" transform="scale(0.015625)"/>
       </defs>
       <use xlink:href="#STIXGeneral-Regular-30" transform="translate(0 0.59375)"/>
       <use xlink:href="#STIXGeneral-Regular-2e" transform="translate(49.999985 0.59375)"/>
       <use xlink:href="#STIXGeneral-Regular-36" transform="translate(74.999969 0.59375)"/>
      </g>
     </g>
    </g>
    <g id="ytick_11">
     <g id="line2d_14">
      <g>
       <use xlink:href="#m6f60b5c028" x="220.293168" y="163.92" style="fill: #323034; stroke: #323034; stroke-width: 0.8"/>
      </g>
     </g>
     <g id="text_18">
      <!-- $\mathdefault{0.7}$ -->
      <g style="fill: #323034" transform="translate(198.293168 168.017813) scale(0.12 -0.12)">
       <defs>
        <path id="STIXGeneral-Regular-37" d="M 2874 4134 
L 1517 -51 
L 1101 -51 
L 2368 3763 
L 992 3763 
Q 717 3763 582 3667 
Q 448 3571 243 3238 
L 128 3296 
L 512 4237 
L 2874 4237 
L 2874 4134 
z
" transform="scale(0.015625)"/>
       </defs>
       <use xlink:href="#STIXGeneral-Regular-30" transform="translate(0 0.40625)"/>
       <use xlink:href="#STIXGeneral-Regular-2e" transform="translate(49.999985 0.40625)"/>
       <use xlink:href="#STIXGeneral-Regular-37" transform="translate(74.999969 0.40625)"/>
      </g>
     </g>
    </g>
    <g id="ytick_12">
     <g id="line2d_15">
      <g>
       <use xlink:href="#m6f60b5c028" x="220.293168" y="126.96" style="fill: #323034; stroke: #323034; stroke-width: 0.8"/>
      </g>
     </g>
     <g id="text_19">
      <!-- $\mathdefault{0.8}$ -->
      <g style="fill: #323034" transform="translate(198.293168 131.057812) scale(0.12 -0.12)">
       <defs>
        <path id="STIXGeneral-Regular-38" d="M 2848 992 
Q 2848 499 2505 204 
Q 2163 -90 1587 -90 
Q 1050 -90 704 204 
Q 358 499 358 954 
Q 358 1293 524 1533 
Q 691 1773 1190 2125 
Q 710 2522 553 2765 
Q 397 3008 397 3328 
Q 397 3782 745 4054 
Q 1094 4326 1638 4326 
Q 2106 4326 2410 4060 
Q 2714 3795 2714 3411 
Q 2714 3059 2531 2848 
Q 2349 2637 1856 2374 
Q 2432 1990 2640 1689 
Q 2848 1389 2848 992 
z
M 2272 3411 
Q 2272 3744 2086 3945 
Q 1901 4147 1574 4147 
Q 1248 4147 1059 3977 
Q 870 3808 870 3513 
Q 870 3219 1059 2979 
Q 1248 2739 1670 2490 
Q 1997 2682 2134 2896 
Q 2272 3110 2272 3411 
z
M 1734 1741 
L 1357 1997 
Q 1075 1766 960 1545 
Q 845 1325 845 1011 
Q 845 576 1065 333 
Q 1286 90 1658 90 
Q 1971 90 2166 285 
Q 2362 480 2362 794 
Q 2362 1082 2214 1299 
Q 2067 1517 1734 1741 
z
" transform="scale(0.015625)"/>
       </defs>
       <use xlink:href="#STIXGeneral-Regular-30" transform="translate(0 0.40625)"/>
       <use xlink:href="#STIXGeneral-Regular-2e" transform="translate(49.999985 0.40625)"/>
       <use xlink:href="#STIXGeneral-Regular-38" transform="translate(74.999969 0.40625)"/>
      </g>
     </g>
    </g>
    <g id="ytick_13">
     <g id="line2d_16">
      <g>
       <use xlink:href="#m6f60b5c028" x="220.293168" y="90" style="fill: #323034; stroke: #323034; stroke-width: 0.8"/>
      </g>
     </g>
     <g id="text_20">
      <!-- $\mathdefault{0.9}$ -->
      <g style="fill: #323034" transform="translate(198.293168 94.097813) scale(0.12 -0.12)">
       <defs>
        <path id="STIXGeneral-Regular-39" d="M 378 -141 
L 358 -13 
Q 1094 115 1603 608 
Q 2112 1101 2304 1882 
Q 1933 1517 1344 1517 
Q 826 1517 509 1875 
Q 192 2234 192 2816 
Q 192 3462 573 3894 
Q 954 4326 1523 4326 
Q 2131 4326 2528 3840 
Q 2938 3328 2938 2522 
Q 2938 1958 2742 1462 
Q 2547 966 2170 621 
Q 1773 262 1395 105 
Q 1018 -51 378 -141 
z
M 2317 2272 
L 2317 2522 
Q 2317 4147 1472 4147 
Q 1171 4147 1005 3930 
Q 909 3802 845 3546 
Q 781 3290 781 3034 
Q 781 2464 995 2128 
Q 1210 1792 1568 1792 
Q 1824 1792 2070 1917 
Q 2317 2042 2317 2272 
z
" transform="scale(0.015625)"/>
       </defs>
       <use xlink:href="#STIXGeneral-Regular-30" transform="translate(0 0.40625)"/>
       <use xlink:href="#STIXGeneral-Regular-2e" transform="translate(49.999985 0.40625)"/>
       <use xlink:href="#STIXGeneral-Regular-39" transform="translate(74.999969 0.40625)"/>
      </g>
     </g>
    </g>
    <g id="ytick_14">
     <g id="line2d_17">
      <g>
       <use xlink:href="#m6f60b5c028" x="220.293168" y="53.04" style="fill: #323034; stroke: #323034; stroke-width: 0.8"/>
      </g>
     </g>
     <g id="text_21">
      <!-- $\mathdefault{1.0}$ -->
      <g style="fill: #323034" transform="translate(198.293168 57.137813) scale(0.12 -0.12)">
       <use xlink:href="#STIXGeneral-Regular-31" transform="translate(0 0.40625)"/>
       <use xlink:href="#STIXGeneral-Regular-2e" transform="translate(49.999985 0.40625)"/>
       <use xlink:href="#STIXGeneral-Regular-30" transform="translate(74.999969 0.40625)"/>
      </g>
     </g>
    </g>
    <g id="text_22">
     <!-- Trivia Accuracy -->
     <g transform="translate(192.677543 184.590937) rotate(-90) scale(0.12 -0.12)">
      <defs>
       <path id="STIXGeneral-Regular-54" d="M 3795 3149 
L 3642 3149 
Q 3539 3674 3353 3821 
Q 3168 3968 2656 3968 
L 2278 3968 
L 2278 710 
Q 2278 346 2387 243 
Q 2496 141 2893 122 
L 2893 0 
L 1024 0 
L 1024 122 
Q 1427 147 1526 256 
Q 1626 365 1626 787 
L 1626 3968 
L 1242 3968 
Q 723 3968 540 3817 
Q 358 3667 262 3149 
L 109 3149 
L 154 4237 
L 3750 4237 
L 3795 3149 
z
" transform="scale(0.015625)"/>
       <path id="STIXGeneral-Regular-69" d="M 1152 4045 
Q 1152 3904 1056 3811 
Q 960 3718 819 3718 
Q 685 3718 592 3811 
Q 499 3904 499 4045 
Q 499 4179 595 4275 
Q 691 4371 826 4371 
Q 966 4371 1059 4275 
Q 1152 4179 1152 4045 
z
M 1619 0 
L 102 0 
L 102 96 
Q 435 115 521 211 
Q 608 307 608 666 
L 608 2118 
Q 608 2342 563 2432 
Q 518 2522 397 2522 
Q 243 2522 128 2490 
L 128 2592 
L 1120 2944 
L 1146 2918 
L 1146 672 
Q 1146 314 1226 218 
Q 1306 122 1619 96 
L 1619 0 
z
" transform="scale(0.015625)"/>
       <path id="STIXGeneral-Regular-76" d="M 3053 2880 
L 3053 2784 
Q 2906 2771 2835 2688 
Q 2765 2605 2637 2285 
L 1818 230 
Q 1690 -90 1638 -90 
Q 1587 -90 1523 77 
Q 1510 96 1497 141 
Q 1485 186 1472 211 
L 704 2048 
Q 499 2534 403 2652 
Q 307 2771 122 2784 
L 122 2880 
L 1376 2880 
L 1376 2784 
Q 1210 2771 1146 2732 
Q 1082 2694 1082 2611 
Q 1082 2509 1139 2368 
L 1792 730 
L 2426 2387 
Q 2464 2483 2464 2579 
Q 2464 2758 2163 2784 
L 2163 2880 
L 3053 2880 
z
" transform="scale(0.015625)"/>
       <path id="STIXGeneral-Regular-75" d="M 3072 320 
L 3072 230 
Q 2573 96 2195 -58 
L 2163 -38 
L 2163 486 
L 2150 486 
Q 1747 -64 1235 -64 
Q 870 -64 662 160 
Q 454 384 454 755 
L 454 2362 
Q 454 2598 371 2688 
Q 288 2778 58 2790 
L 58 2880 
L 992 2880 
L 992 813 
Q 992 595 1123 451 
Q 1254 307 1446 307 
Q 1760 307 1984 506 
Q 2067 582 2099 649 
Q 2131 717 2131 877 
L 2131 2355 
Q 2131 2605 2041 2678 
Q 1952 2752 1658 2771 
L 1658 2880 
L 2669 2880 
L 2669 685 
Q 2669 461 2742 390 
Q 2816 320 3034 320 
L 3072 320 
z
" transform="scale(0.015625)"/>
      </defs>
      <use xlink:href="#STIXGeneral-Regular-54"/>
      <use xlink:href="#STIXGeneral-Regular-72" x="61.099991"/>
      <use xlink:href="#STIXGeneral-Regular-69" x="94.399979"/>
      <use xlink:href="#STIXGeneral-Regular-76" x="122.199966"/>
      <use xlink:href="#STIXGeneral-Regular-69" x="172.199951"/>
      <use xlink:href="#STIXGeneral-Regular-61" x="199.999939"/>
      <use xlink:href="#STIXGeneral-Regular-20" x="244.399933"/>
      <use xlink:href="#STIXGeneral-Regular-41" x="269.399918"/>
      <use xlink:href="#STIXGeneral-Regular-63" x="341.599899"/>
      <use xlink:href="#STIXGeneral-Regular-63" x="385.999893"/>
      <use xlink:href="#STIXGeneral-Regular-75" x="430.399887"/>
      <use xlink:href="#STIXGeneral-Regular-72" x="480.399872"/>
      <use xlink:href="#STIXGeneral-Regular-61" x="513.69986"/>
      <use xlink:href="#STIXGeneral-Regular-63" x="558.099854"/>
      <use xlink:href="#STIXGeneral-Regular-79" x="602.499847"/>
     </g>
    </g>
   </g>
   <g id="patch_16">
    <path d="M 220.293168 256.32 
L 220.293168 34.56 
" style="fill: none; stroke: #000000; stroke-width: 0.6; stroke-linejoin: miter; stroke-linecap: square"/>
   </g>
   <g id="patch_17">
    <path d="M 220.293168 256.32 
L 386.653416 256.32 
" style="fill: none; stroke: #000000; stroke-width: 0.6; stroke-linejoin: miter; stroke-linecap: square"/>
   </g>
   <g id="text_23">
    <!-- Δ -5% -->
    <g transform="translate(249.123074 161.387405) scale(0.1 -0.1)">
     <use xlink:href="#STIXGeneral-Regular-394"/>
     <use xlink:href="#STIXGeneral-Regular-20" x="72.199982"/>
     <use xlink:href="#STIXGeneral-Regular-2d" x="97.199966"/>
     <use xlink:href="#STIXGeneral-Regular-35" x="130.499954"/>
     <use xlink:href="#STIXGeneral-Regular-25" x="180.499939"/>
    </g>
   </g>
   <g id="patch_18">
    <path d="M 270.201242 181.716775 
Q 270.201242 176.696555 270.201242 171.676336 
" style="fill: none; stroke: #000000; stroke-width: 0.8; stroke-linecap: round"/>
    <path d="M 272.201242 177.716775 
L 270.201242 181.716775 
L 268.201242 177.716775 
z
" style="stroke: #000000; stroke-width: 0.8; stroke-linecap: round"/>
    <path d="M 268.201242 175.676336 
L 270.201242 171.676336 
L 272.201242 175.676336 
z
" style="stroke: #000000; stroke-width: 0.8; stroke-linecap: round"/>
   </g>
   <g id="text_24">
    <!-- Δ -9% -->
    <g transform="translate(332.303198 68.050133) scale(0.1 -0.1)">
     <use xlink:href="#STIXGeneral-Regular-394"/>
     <use xlink:href="#STIXGeneral-Regular-20" x="72.199982"/>
     <use xlink:href="#STIXGeneral-Regular-2d" x="97.199966"/>
     <use xlink:href="#STIXGeneral-Regular-39" x="130.499954"/>
     <use xlink:href="#STIXGeneral-Regular-25" x="180.499939"/>
    </g>
   </g>
   <g id="patch_19">
    <path d="M 353.381366 106.280674 
Q 353.381366 92.309956 353.381366 78.339239 
" style="fill: none; stroke: #000000; stroke-width: 0.8; stroke-linecap: round"/>
    <path d="M 355.381366 102.280674 
L 353.381366 106.280674 
L 351.381366 102.280674 
z
" style="stroke: #000000; stroke-width: 0.8; stroke-linecap: round"/>
    <path d="M 351.381366 82.339239 
L 353.381366 78.339239 
L 355.381366 82.339239 
z
" style="stroke: #000000; stroke-width: 0.8; stroke-linecap: round"/>
   </g>
  </g>
  <g id="axes_3">
   <g id="patch_20">
    <path d="M 415.76646 256.32 
L 582.126708 256.32 
L 582.126708 34.56 
L 415.76646 34.56 
z
" style="fill: #ffffff"/>
   </g>
   <g id="matplotlib.axis_5">
    <g id="xtick_4">
     <g id="line2d_18">
      <path d="M 436.561491 256.32 
L 436.561491 34.56 
" clip-path="url(#pb9ce899b7c)" style="fill: none; stroke-dasharray: 1.85,0.8; stroke-dashoffset: 0; stroke: #b1afb5; stroke-opacity: 0.5; stroke-width: 0.5"/>
     </g>
     <g id="line2d_19">
      <g>
       <use xlink:href="#m17503e7626" x="436.561491" y="256.32" style="fill: #323034; stroke: #323034; stroke-width: 0.8"/>
      </g>
     </g>
     <g id="text_25">
      <!-- $\mathdefault{0}$ -->
      <g style="fill: #323034" transform="translate(433.561491 271.515625) scale(0.12 -0.12)">
       <use xlink:href="#STIXGeneral-Regular-30" transform="translate(0 0.40625)"/>
      </g>
     </g>
    </g>
    <g id="xtick_5">
     <g id="line2d_20">
      <path d="M 519.741615 256.32 
L 519.741615 34.56 
" clip-path="url(#pb9ce899b7c)" style="fill: none; stroke-dasharray: 1.85,0.8; stroke-dashoffset: 0; stroke: #b1afb5; stroke-opacity: 0.5; stroke-width: 0.5"/>
     </g>
     <g id="line2d_21">
      <g>
       <use xlink:href="#m17503e7626" x="519.741615" y="256.32" style="fill: #323034; stroke: #323034; stroke-width: 0.8"/>
      </g>
     </g>
     <g id="text_26">
      <!-- $\mathdefault{20}$ -->
      <g style="fill: #323034" transform="translate(513.741615 271.515625) scale(0.12 -0.12)">
       <use xlink:href="#STIXGeneral-Regular-32" transform="translate(0 0.40625)"/>
       <use xlink:href="#STIXGeneral-Regular-30" transform="translate(49.999985 0.40625)"/>
      </g>
     </g>
    </g>
    <g id="text_27">
     <!-- Layer -->
     <g transform="translate(484.954396 285.304375) scale(0.12 -0.12)">
      <use xlink:href="#STIXGeneral-Regular-4c"/>
      <use xlink:href="#STIXGeneral-Regular-61" x="61.099991"/>
      <use xlink:href="#STIXGeneral-Regular-79" x="105.499985"/>
      <use xlink:href="#STIXGeneral-Regular-65" x="155.499969"/>
      <use xlink:href="#STIXGeneral-Regular-72" x="199.899963"/>
     </g>
     <!-- (Hard Qs) -->
     <g transform="translate(474.790021 297.75475) scale(0.12 -0.12)">
      <defs>
       <path id="STIXGeneral-Regular-28" d="M 1946 -1030 
L 1869 -1133 
Q 1126 -710 716 32 
Q 307 774 307 1613 
Q 307 3386 1888 4326 
L 1946 4224 
Q 1293 3667 1075 3126 
Q 858 2586 858 1632 
Q 858 685 1082 96 
Q 1306 -493 1946 -1030 
z
" transform="scale(0.015625)"/>
       <path id="STIXGeneral-Regular-29" d="M 186 4224 
L 262 4326 
Q 992 3891 1408 3148 
Q 1824 2406 1824 1581 
Q 1824 -166 243 -1133 
L 186 -1030 
Q 845 -486 1059 54 
Q 1274 595 1274 1562 
Q 1274 2534 1059 3120 
Q 845 3706 186 4224 
z
" transform="scale(0.015625)"/>
      </defs>
      <use xlink:href="#STIXGeneral-Regular-28"/>
      <use xlink:href="#STIXGeneral-Regular-48" x="33.299988"/>
      <use xlink:href="#STIXGeneral-Regular-61" x="105.499969"/>
      <use xlink:href="#STIXGeneral-Regular-72" x="149.899963"/>
      <use xlink:href="#STIXGeneral-Regular-64" x="183.199951"/>
      <use xlink:href="#STIXGeneral-Regular-20" x="233.199936"/>
      <use xlink:href="#STIXGeneral-Regular-51" x="258.199921"/>
      <use xlink:href="#STIXGeneral-Regular-73" x="330.399902"/>
      <use xlink:href="#STIXGeneral-Regular-29" x="369.299896"/>
     </g>
    </g>
   </g>
   <g id="matplotlib.axis_6">
    <g id="ytick_15">
     <g id="line2d_22">
      <path d="M 415.76646 237.84 
L 582.126708 237.84 
" clip-path="url(#pb9ce899b7c)" style="fill: none; stroke-dasharray: 1.85,0.8; stroke-dashoffset: 0; stroke: #b1afb5; stroke-opacity: 0.5; stroke-width: 0.5"/>
     </g>
     <g id="line2d_23">
      <g>
       <use xlink:href="#m6f60b5c028" x="415.76646" y="237.84" style="fill: #323034; stroke: #323034; stroke-width: 0.8"/>
      </g>
     </g>
    </g>
    <g id="ytick_16">
     <g id="line2d_24">
      <path d="M 415.76646 200.88 
L 582.126708 200.88 
" clip-path="url(#pb9ce899b7c)" style="fill: none; stroke-dasharray: 1.85,0.8; stroke-dashoffset: 0; stroke: #b1afb5; stroke-opacity: 0.5; stroke-width: 0.5"/>
     </g>
     <g id="line2d_25">
      <g>
       <use xlink:href="#m6f60b5c028" x="415.76646" y="200.88" style="fill: #323034; stroke: #323034; stroke-width: 0.8"/>
      </g>
     </g>
    </g>
    <g id="ytick_17">
     <g id="line2d_26">
      <path d="M 415.76646 163.92 
L 582.126708 163.92 
" clip-path="url(#pb9ce899b7c)" style="fill: none; stroke-dasharray: 1.85,0.8; stroke-dashoffset: 0; stroke: #b1afb5; stroke-opacity: 0.5; stroke-width: 0.5"/>
     </g>
     <g id="line2d_27">
      <g>
       <use xlink:href="#m6f60b5c028" x="415.76646" y="163.92" style="fill: #323034; stroke: #323034; stroke-width: 0.8"/>
      </g>
     </g>
    </g>
    <g id="ytick_18">
     <g id="line2d_28">
      <path d="M 415.76646 126.96 
L 582.126708 126.96 
" clip-path="url(#pb9ce899b7c)" style="fill: none; stroke-dasharray: 1.85,0.8; stroke-dashoffset: 0; stroke: #b1afb5; stroke-opacity: 0.5; stroke-width: 0.5"/>
     </g>
     <g id="line2d_29">
      <g>
       <use xlink:href="#m6f60b5c028" x="415.76646" y="126.96" style="fill: #323034; stroke: #323034; stroke-width: 0.8"/>
      </g>
     </g>
    </g>
    <g id="ytick_19">
     <g id="line2d_30">
      <path d="M 415.76646 90 
L 582.126708 90 
" clip-path="url(#pb9ce899b7c)" style="fill: none; stroke-dasharray: 1.85,0.8; stroke-dashoffset: 0; stroke: #b1afb5; stroke-opacity: 0.5; stroke-width: 0.5"/>
     </g>
     <g id="line2d_31">
      <g>
       <use xlink:href="#m6f60b5c028" x="415.76646" y="90" style="fill: #323034; stroke: #323034; stroke-width: 0.8"/>
      </g>
     </g>
    </g>
    <g id="ytick_20">
     <g id="line2d_32">
      <path d="M 415.76646 53.04 
L 582.126708 53.04 
" clip-path="url(#pb9ce899b7c)" style="fill: none; stroke-dasharray: 1.85,0.8; stroke-dashoffset: 0; stroke: #b1afb5; stroke-opacity: 0.5; stroke-width: 0.5"/>
     </g>
     <g id="line2d_33">
      <g>
       <use xlink:href="#m6f60b5c028" x="415.76646" y="53.04" style="fill: #323034; stroke: #323034; stroke-width: 0.8"/>
      </g>
     </g>
    </g>
   </g>
   <g id="line2d_34">
    <path d="M 436.561491 240.159665 
L 440.720497 240.159665 
L 444.879503 240.159665 
L 449.038509 243.252552 
L 453.197516 241.706109 
L 457.356522 260.263431 
L 461.515528 235.520335 
L 465.674534 224.69523 
L 469.83354 244.798996 
L 473.992547 240.159665 
L 478.151553 277.27431 
L 482.310559 192.219916 
L 486.469565 190.673473 
L 490.628571 182.941255 
L 494.787578 184.487699 
L 498.946584 162.83749 
L 503.10559 184.487699 
L 507.264596 167.47682 
L 511.423602 227.788117 
L 515.582609 250.98477 
L 519.741615 172.116151 
L 523.900621 170.569707 
L 528.059627 164.383933 
L 532.218634 167.47682 
L 536.37764 201.498577 
L 540.536646 173.662594 
L 544.695652 167.47682 
L 548.854658 169.023264 
L 553.013665 172.116151 
L 557.172671 165.930377 
L 561.331677 176.755481 
L 565.490683 175.209038 
" clip-path="url(#pb9ce899b7c)" style="fill: none; stroke: #a4d6f3; stroke-width: 2; stroke-linecap: square"/>
   </g>
   <g id="line2d_35">
    <path d="M 436.561491 233.973891 
L 440.720497 240.159665 
L 444.879503 249.438326 
L 449.038509 249.438326 
L 453.197516 249.438326 
L 457.356522 246.345439 
L 461.515528 255.6241 
L 465.674534 240.159665 
L 469.83354 227.788117 
L 473.992547 240.159665 
L 478.151553 260.263431 
L 482.310559 261.809874 
L 486.469565 192.219916 
L 490.628571 233.973891 
L 494.787578 196.859247 
L 498.946584 198.40569 
L 503.10559 212.323682 
L 507.264596 232.427448 
L 511.423602 195.312803 
L 515.582609 196.859247 
L 519.741615 182.941255 
L 523.900621 216.963013 
L 528.059627 199.952134 
L 532.218634 229.334561 
L 536.37764 229.334561 
L 540.536646 184.487699 
L 544.695652 220.0559 
L 548.854658 206.137908 
L 553.013665 207.684351 
L 557.172671 190.673473 
L 561.331677 220.0559 
L 565.490683 199.952134 
" clip-path="url(#pb9ce899b7c)" style="fill: none; stroke: #ffcf65; stroke-width: 2; stroke-linecap: square"/>
   </g>
   <g id="line2d_36">
    <path d="M 436.561491 237.066778 
L 440.720497 212.323682 
L 444.879503 210.777238 
L 449.038509 207.684351 
L 453.197516 218.509456 
L 457.356522 207.684351 
L 461.515528 187.580586 
L 465.674534 187.580586 
L 469.83354 196.859247 
L 473.992547 196.859247 
L 478.151553 196.859247 
L 482.310559 182.941255 
L 486.469565 170.569707 
L 490.628571 150.465941 
L 494.787578 148.919498 
L 498.946584 144.280167 
L 503.10559 148.919498 
L 507.264596 155.105272 
L 511.423602 150.465941 
L 515.582609 148.919498 
L 519.741615 148.919498 
L 523.900621 147.373054 
L 528.059627 155.105272 
L 532.218634 152.012385 
L 536.37764 155.105272 
L 540.536646 155.105272 
L 544.695652 150.465941 
L 548.854658 152.012385 
L 553.013665 150.465941 
L 557.172671 152.012385 
L 561.331677 148.919498 
L 565.490683 148.919498 
" clip-path="url(#pb9ce899b7c)" style="fill: none; stroke: #1d99e1; stroke-width: 2; stroke-linecap: square"/>
   </g>
   <g id="line2d_37">
    <path d="M 436.561491 233.973891 
L 440.720497 209.230795 
L 444.879503 209.230795 
L 449.038509 207.684351 
L 453.197516 220.0559 
L 457.356522 213.870126 
L 461.515528 190.673473 
L 465.674534 184.487699 
L 469.83354 195.312803 
L 473.992547 204.591464 
L 478.151553 201.498577 
L 482.310559 195.312803 
L 486.469565 181.394812 
L 490.628571 175.209038 
L 494.787578 161.291046 
L 498.946584 169.023264 
L 503.10559 164.383933 
L 507.264596 170.569707 
L 511.423602 164.383933 
L 515.582609 156.651715 
L 519.741615 162.83749 
L 523.900621 156.651715 
L 528.059627 167.47682 
L 532.218634 164.383933 
L 536.37764 173.662594 
L 540.536646 172.116151 
L 544.695652 169.023264 
L 548.854658 167.47682 
L 553.013665 167.47682 
L 557.172671 169.023264 
L 561.331677 167.47682 
L 565.490683 173.662594 
" clip-path="url(#pb9ce899b7c)" style="fill: none; stroke: #cc8d00; stroke-width: 2; stroke-linecap: square"/>
   </g>
   <g id="line2d_38">
    <path d="M 415.76646 182.761257 
L 582.126708 182.761257 
" clip-path="url(#pb9ce899b7c)" style="fill: none; stroke-dasharray: 7.4,3.2; stroke-dashoffset: 0; stroke: #e69f00; stroke-opacity: 0.5; stroke-width: 2"/>
   </g>
   <g id="line2d_39">
    <path d="M 415.76646 170.627405 
L 582.126708 170.627405 
" clip-path="url(#pb9ce899b7c)" style="fill: none; stroke-dasharray: 7.4,3.2; stroke-dashoffset: 0; stroke: #56b4e9; stroke-opacity: 0.5; stroke-width: 2"/>
   </g>
   <g id="patch_21">
    <path d="M 415.76646 256.32 
L 415.76646 34.56 
" style="fill: none; stroke: #000000; stroke-width: 0.6; stroke-linejoin: miter; stroke-linecap: square"/>
   </g>
   <g id="patch_22">
    <path d="M 415.76646 256.32 
L 582.126708 256.32 
" style="fill: none; stroke: #000000; stroke-width: 0.6; stroke-linejoin: miter; stroke-linecap: square"/>
   </g>
   <g id="legend_2">
    <g id="patch_23">
     <path d="M 422.76646 92.24125 
L 548.79771 92.24125 
Q 550.79771 92.24125 550.79771 90.24125 
L 550.79771 41.56 
Q 550.79771 39.56 548.79771 39.56 
L 422.76646 39.56 
Q 420.76646 39.56 420.76646 41.56 
L 420.76646 90.24125 
Q 420.76646 92.24125 422.76646 92.24125 
z
" style="fill: #ffffff; opacity: 0.8; stroke: #e6e6e6; stroke-width: 0.8; stroke-linejoin: miter"/>
    </g>
    <g id="line2d_40">
     <path d="M 422.76646 45.06 
L 432.76646 45.06 
L 442.76646 45.06 
" style="fill: none; stroke: #a4d6f3; stroke-width: 2; stroke-linecap: square"/>
    </g>
    <g id="text_28">
     <!-- Llama-2 (Unsupervised) -->
     <g style="fill: #323034" transform="translate(450.76646 48.56) scale(0.1 -0.1)">
      <defs>
       <path id="STIXGeneral-Regular-55" d="M 4512 4237 
L 4512 4115 
Q 4122 4077 4016 3926 
Q 3910 3776 3910 3302 
L 3910 1670 
Q 3910 1178 3840 896 
Q 3770 614 3565 378 
Q 3155 -90 2272 -90 
Q 1574 -90 1184 205 
Q 666 589 666 1594 
L 666 3578 
Q 666 3898 566 3994 
Q 467 4090 90 4115 
L 90 4237 
L 1901 4237 
L 1901 4115 
Q 1517 4083 1417 3977 
Q 1318 3872 1318 3514 
L 1318 1517 
Q 1318 1101 1369 877 
Q 1421 653 1600 480 
Q 1901 192 2419 192 
Q 3066 192 3392 570 
Q 3539 749 3584 963 
Q 3629 1178 3629 1600 
L 3629 3283 
Q 3629 3782 3520 3936 
Q 3411 4090 3027 4115 
L 3027 4237 
L 4512 4237 
z
" transform="scale(0.015625)"/>
       <path id="STIXGeneral-Regular-6e" d="M 3104 0 
L 1773 0 
L 1779 96 
Q 2016 115 2096 233 
Q 2176 352 2176 672 
L 2176 1946 
Q 2176 2592 1709 2592 
Q 1549 2592 1408 2515 
Q 1267 2438 1050 2227 
L 1050 461 
Q 1050 269 1136 192 
Q 1222 115 1466 96 
L 1466 0 
L 115 0 
L 115 96 
Q 358 115 435 214 
Q 512 314 512 602 
L 512 2157 
Q 512 2394 467 2483 
Q 422 2573 288 2573 
Q 160 2573 102 2547 
L 102 2656 
Q 550 2784 979 2944 
L 1030 2925 
L 1030 2426 
L 1037 2426 
Q 1491 2944 1958 2944 
Q 2323 2944 2518 2688 
Q 2714 2432 2714 1958 
L 2714 544 
Q 2714 288 2790 205 
Q 2867 122 3104 96 
L 3104 0 
z
" transform="scale(0.015625)"/>
       <path id="STIXGeneral-Regular-70" d="M 1018 2931 
L 1018 2438 
Q 1421 2944 1939 2944 
Q 2406 2944 2707 2560 
Q 3008 2176 3008 1581 
Q 3008 883 2621 409 
Q 2234 -64 1664 -64 
Q 1466 -64 1328 -6 
Q 1190 51 1018 211 
L 1018 -794 
Q 1018 -1094 1120 -1180 
Q 1222 -1267 1581 -1274 
L 1581 -1389 
L 32 -1389 
L 32 -1280 
Q 314 -1254 397 -1171 
Q 480 -1088 480 -838 
L 480 2157 
Q 480 2381 429 2451 
Q 378 2522 218 2522 
Q 115 2522 58 2515 
L 58 2618 
Q 506 2752 979 2944 
L 1018 2931 
z
M 1018 2138 
L 1018 563 
Q 1018 422 1238 281 
Q 1459 141 1683 141 
Q 2029 141 2243 467 
Q 2458 794 2458 1325 
Q 2458 1888 2243 2224 
Q 2029 2560 1670 2560 
Q 1446 2560 1232 2419 
Q 1018 2278 1018 2138 
z
" transform="scale(0.015625)"/>
      </defs>
      <use xlink:href="#STIXGeneral-Regular-4c"/>
      <use xlink:href="#STIXGeneral-Regular-6c" x="61.099991"/>
      <use xlink:href="#STIXGeneral-Regular-61" x="88.899979"/>
      <use xlink:href="#STIXGeneral-Regular-6d" x="133.299973"/>
      <use xlink:href="#STIXGeneral-Regular-61" x="211.09996"/>
      <use xlink:href="#STIXGeneral-Regular-2d" x="255.499954"/>
      <use xlink:href="#STIXGeneral-Regular-32" x="288.799942"/>
      <use xlink:href="#STIXGeneral-Regular-20" x="338.799927"/>
      <use xlink:href="#STIXGeneral-Regular-28" x="363.799911"/>
      <use xlink:href="#STIXGeneral-Regular-55" x="397.099899"/>
      <use xlink:href="#STIXGeneral-Regular-6e" x="469.299881"/>
      <use xlink:href="#STIXGeneral-Regular-73" x="519.299866"/>
      <use xlink:href="#STIXGeneral-Regular-75" x="558.19986"/>
      <use xlink:href="#STIXGeneral-Regular-70" x="608.199844"/>
      <use xlink:href="#STIXGeneral-Regular-65" x="658.199829"/>
      <use xlink:href="#STIXGeneral-Regular-72" x="702.599823"/>
      <use xlink:href="#STIXGeneral-Regular-76" x="735.899811"/>
      <use xlink:href="#STIXGeneral-Regular-69" x="785.899796"/>
      <use xlink:href="#STIXGeneral-Regular-73" x="813.699783"/>
      <use xlink:href="#STIXGeneral-Regular-65" x="852.599777"/>
      <use xlink:href="#STIXGeneral-Regular-64" x="896.999771"/>
      <use xlink:href="#STIXGeneral-Regular-29" x="946.999756"/>
     </g>
    </g>
    <g id="line2d_41">
     <path d="M 422.76646 58.230313 
L 432.76646 58.230313 
L 442.76646 58.230313 
" style="fill: none; stroke: #ffcf65; stroke-width: 2; stroke-linecap: square"/>
    </g>
    <g id="text_29">
     <!-- WHP (Unsupervised) -->
     <g style="fill: #323034" transform="translate(450.76646 61.730313) scale(0.1 -0.1)">
      <use xlink:href="#STIXGeneral-Regular-57"/>
      <use xlink:href="#STIXGeneral-Regular-48" x="94.399994"/>
      <use xlink:href="#STIXGeneral-Regular-50" x="166.599976"/>
      <use xlink:href="#STIXGeneral-Regular-20" x="222.299973"/>
      <use xlink:href="#STIXGeneral-Regular-28" x="247.299957"/>
      <use xlink:href="#STIXGeneral-Regular-55" x="280.599945"/>
      <use xlink:href="#STIXGeneral-Regular-6e" x="352.799927"/>
      <use xlink:href="#STIXGeneral-Regular-73" x="402.799911"/>
      <use xlink:href="#STIXGeneral-Regular-75" x="441.699905"/>
      <use xlink:href="#STIXGeneral-Regular-70" x="491.69989"/>
      <use xlink:href="#STIXGeneral-Regular-65" x="541.699875"/>
      <use xlink:href="#STIXGeneral-Regular-72" x="586.099869"/>
      <use xlink:href="#STIXGeneral-Regular-76" x="619.399857"/>
      <use xlink:href="#STIXGeneral-Regular-69" x="669.399841"/>
      <use xlink:href="#STIXGeneral-Regular-73" x="697.199829"/>
      <use xlink:href="#STIXGeneral-Regular-65" x="736.099823"/>
      <use xlink:href="#STIXGeneral-Regular-64" x="780.499817"/>
      <use xlink:href="#STIXGeneral-Regular-29" x="830.499802"/>
     </g>
    </g>
    <g id="line2d_42">
     <path d="M 422.76646 71.400625 
L 432.76646 71.400625 
L 442.76646 71.400625 
" style="fill: none; stroke: #1d99e1; stroke-width: 2; stroke-linecap: square"/>
    </g>
    <g id="text_30">
     <!-- Llama-2 (Supervised) -->
     <g style="fill: #323034" transform="translate(450.76646 74.900625) scale(0.1 -0.1)">
      <use xlink:href="#STIXGeneral-Regular-4c"/>
      <use xlink:href="#STIXGeneral-Regular-6c" x="61.099991"/>
      <use xlink:href="#STIXGeneral-Regular-61" x="88.899979"/>
      <use xlink:href="#STIXGeneral-Regular-6d" x="133.299973"/>
      <use xlink:href="#STIXGeneral-Regular-61" x="211.09996"/>
      <use xlink:href="#STIXGeneral-Regular-2d" x="255.499954"/>
      <use xlink:href="#STIXGeneral-Regular-32" x="288.799942"/>
      <use xlink:href="#STIXGeneral-Regular-20" x="338.799927"/>
      <use xlink:href="#STIXGeneral-Regular-28" x="363.799911"/>
      <use xlink:href="#STIXGeneral-Regular-53" x="397.099899"/>
      <use xlink:href="#STIXGeneral-Regular-75" x="452.69989"/>
      <use xlink:href="#STIXGeneral-Regular-70" x="502.699875"/>
      <use xlink:href="#STIXGeneral-Regular-65" x="552.69986"/>
      <use xlink:href="#STIXGeneral-Regular-72" x="597.099854"/>
      <use xlink:href="#STIXGeneral-Regular-76" x="630.399841"/>
      <use xlink:href="#STIXGeneral-Regular-69" x="680.399826"/>
      <use xlink:href="#STIXGeneral-Regular-73" x="708.199814"/>
      <use xlink:href="#STIXGeneral-Regular-65" x="747.099808"/>
      <use xlink:href="#STIXGeneral-Regular-64" x="791.499802"/>
      <use xlink:href="#STIXGeneral-Regular-29" x="841.499786"/>
     </g>
    </g>
    <g id="line2d_43">
     <path d="M 422.76646 84.570938 
L 432.76646 84.570938 
L 442.76646 84.570938 
" style="fill: none; stroke: #cc8d00; stroke-width: 2; stroke-linecap: square"/>
    </g>
    <g id="text_31">
     <!-- WHP (Supervised) -->
     <g style="fill: #323034" transform="translate(450.76646 88.070938) scale(0.1 -0.1)">
      <use xlink:href="#STIXGeneral-Regular-57"/>
      <use xlink:href="#STIXGeneral-Regular-48" x="94.399994"/>
      <use xlink:href="#STIXGeneral-Regular-50" x="166.599976"/>
      <use xlink:href="#STIXGeneral-Regular-20" x="222.299973"/>
      <use xlink:href="#STIXGeneral-Regular-28" x="247.299957"/>
      <use xlink:href="#STIXGeneral-Regular-53" x="280.599945"/>
      <use xlink:href="#STIXGeneral-Regular-75" x="336.199936"/>
      <use xlink:href="#STIXGeneral-Regular-70" x="386.199921"/>
      <use xlink:href="#STIXGeneral-Regular-65" x="436.199905"/>
      <use xlink:href="#STIXGeneral-Regular-72" x="480.599899"/>
      <use xlink:href="#STIXGeneral-Regular-76" x="513.899887"/>
      <use xlink:href="#STIXGeneral-Regular-69" x="563.899872"/>
      <use xlink:href="#STIXGeneral-Regular-73" x="591.69986"/>
      <use xlink:href="#STIXGeneral-Regular-65" x="630.599854"/>
      <use xlink:href="#STIXGeneral-Regular-64" x="674.999847"/>
      <use xlink:href="#STIXGeneral-Regular-29" x="724.999832"/>
     </g>
    </g>
   </g>
   <g id="line2d_44">
    <path d="M 498.946584 162.83749 
" clip-path="url(#pb9ce899b7c)" style="fill: none; stroke: #a4d6f3; stroke-opacity: 0.5; stroke-width: 2; stroke-linecap: square"/>
    <defs>
     <path id="mb2c0e701d3" d="M 0 3 
C 0.795609 3 1.55874 2.683901 2.12132 2.12132 
C 2.683901 1.55874 3 0.795609 3 0 
C 3 -0.795609 2.683901 -1.55874 2.12132 -2.12132 
C 1.55874 -2.683901 0.795609 -3 0 -3 
C -0.795609 -3 -1.55874 -2.683901 -2.12132 -2.12132 
C -2.683901 -1.55874 -3 -0.795609 -3 0 
C -3 0.795609 -2.683901 1.55874 -2.12132 2.12132 
C -1.55874 2.683901 -0.795609 3 0 3 
z
" style="stroke: #000000; stroke-opacity: 0.5"/>
    </defs>
    <g clip-path="url(#pb9ce899b7c)">
     <use xlink:href="#mb2c0e701d3" x="498.946584" y="162.83749" style="fill: #a4d6f3; fill-opacity: 0.5; stroke: #000000; stroke-opacity: 0.5"/>
    </g>
   </g>
   <g id="line2d_45">
    <path d="M 519.741615 182.941255 
" clip-path="url(#pb9ce899b7c)" style="fill: none; stroke: #ffcf65; stroke-opacity: 0.5; stroke-width: 2; stroke-linecap: square"/>
    <defs>
     <path id="m390b5c4de3" d="M 0 3 
C 0.795609 3 1.55874 2.683901 2.12132 2.12132 
C 2.683901 1.55874 3 0.795609 3 0 
C 3 -0.795609 2.683901 -1.55874 2.12132 -2.12132 
C 1.55874 -2.683901 0.795609 -3 0 -3 
C -0.795609 -3 -1.55874 -2.683901 -2.12132 -2.12132 
C -2.683901 -1.55874 -3 -0.795609 -3 0 
C -3 0.795609 -2.683901 1.55874 -2.12132 2.12132 
C -1.55874 2.683901 -0.795609 3 0 3 
z
" style="stroke: #000000; stroke-opacity: 0.5"/>
    </defs>
    <g clip-path="url(#pb9ce899b7c)">
     <use xlink:href="#m390b5c4de3" x="519.741615" y="182.941255" style="fill: #ffcf65; fill-opacity: 0.5; stroke: #000000; stroke-opacity: 0.5"/>
    </g>
   </g>
   <g id="line2d_46">
    <path d="M 498.946584 144.280167 
" clip-path="url(#pb9ce899b7c)" style="fill: none; stroke: #1d99e1; stroke-opacity: 0.5; stroke-width: 2; stroke-linecap: square"/>
    <defs>
     <path id="m44e2f2ba48" d="M 0 3 
C 0.795609 3 1.55874 2.683901 2.12132 2.12132 
C 2.683901 1.55874 3 0.795609 3 0 
C 3 -0.795609 2.683901 -1.55874 2.12132 -2.12132 
C 1.55874 -2.683901 0.795609 -3 0 -3 
C -0.795609 -3 -1.55874 -2.683901 -2.12132 -2.12132 
C -2.683901 -1.55874 -3 -0.795609 -3 0 
C -3 0.795609 -2.683901 1.55874 -2.12132 2.12132 
C -1.55874 2.683901 -0.795609 3 0 3 
z
" style="stroke: #000000; stroke-opacity: 0.5"/>
    </defs>
    <g clip-path="url(#pb9ce899b7c)">
     <use xlink:href="#m44e2f2ba48" x="498.946584" y="144.280167" style="fill: #1d99e1; fill-opacity: 0.5; stroke: #000000; stroke-opacity: 0.5"/>
    </g>
   </g>
   <g id="line2d_47">
    <path d="M 515.582609 156.651715 
" clip-path="url(#pb9ce899b7c)" style="fill: none; stroke: #cc8d00; stroke-opacity: 0.5; stroke-width: 2; stroke-linecap: square"/>
    <defs>
     <path id="md5aebebd59" d="M 0 3 
C 0.795609 3 1.55874 2.683901 2.12132 2.12132 
C 2.683901 1.55874 3 0.795609 3 0 
C 3 -0.795609 2.683901 -1.55874 2.12132 -2.12132 
C 1.55874 -2.683901 0.795609 -3 0 -3 
C -0.795609 -3 -1.55874 -2.683901 -2.12132 -2.12132 
C -2.683901 -1.55874 -3 -0.795609 -3 0 
C -3 0.795609 -2.683901 1.55874 -2.12132 2.12132 
C -1.55874 2.683901 -0.795609 3 0 3 
z
" style="stroke: #000000; stroke-opacity: 0.5"/>
    </defs>
    <g clip-path="url(#pb9ce899b7c)">
     <use xlink:href="#md5aebebd59" x="515.582609" y="156.651715" style="fill: #cc8d00; fill-opacity: 0.5; stroke: #000000; stroke-opacity: 0.5"/>
    </g>
   </g>
  </g>
  <g id="axes_4">
   <g id="patch_24">
    <path d="M 611.239752 256.32 
L 777.6 256.32 
L 777.6 34.56 
L 611.239752 34.56 
z
" style="fill: #ffffff"/>
   </g>
   <g id="matplotlib.axis_7">
    <g id="xtick_6">
     <g id="line2d_48">
      <path d="M 632.034783 256.32 
L 632.034783 34.56 
" clip-path="url(#pc87017fff2)" style="fill: none; stroke-dasharray: 1.85,0.8; stroke-dashoffset: 0; stroke: #b1afb5; stroke-opacity: 0.5; stroke-width: 0.5"/>
     </g>
     <g id="line2d_49">
      <g>
       <use xlink:href="#m17503e7626" x="632.034783" y="256.32" style="fill: #323034; stroke: #323034; stroke-width: 0.8"/>
      </g>
     </g>
     <g id="text_32">
      <!-- $\mathdefault{0}$ -->
      <g style="fill: #323034" transform="translate(629.034783 271.515625) scale(0.12 -0.12)">
       <use xlink:href="#STIXGeneral-Regular-30" transform="translate(0 0.40625)"/>
      </g>
     </g>
    </g>
    <g id="xtick_7">
     <g id="line2d_50">
      <path d="M 715.214907 256.32 
L 715.214907 34.56 
" clip-path="url(#pc87017fff2)" style="fill: none; stroke-dasharray: 1.85,0.8; stroke-dashoffset: 0; stroke: #b1afb5; stroke-opacity: 0.5; stroke-width: 0.5"/>
     </g>
     <g id="line2d_51">
      <g>
       <use xlink:href="#m17503e7626" x="715.214907" y="256.32" style="fill: #323034; stroke: #323034; stroke-width: 0.8"/>
      </g>
     </g>
     <g id="text_33">
      <!-- $\mathdefault{20}$ -->
      <g style="fill: #323034" transform="translate(709.214907 271.515625) scale(0.12 -0.12)">
       <use xlink:href="#STIXGeneral-Regular-32" transform="translate(0 0.40625)"/>
       <use xlink:href="#STIXGeneral-Regular-30" transform="translate(49.999985 0.40625)"/>
      </g>
     </g>
    </g>
    <g id="text_34">
     <!-- Layer -->
     <g transform="translate(680.427688 285.304375) scale(0.12 -0.12)">
      <use xlink:href="#STIXGeneral-Regular-4c"/>
      <use xlink:href="#STIXGeneral-Regular-61" x="61.099991"/>
      <use xlink:href="#STIXGeneral-Regular-79" x="105.499985"/>
      <use xlink:href="#STIXGeneral-Regular-65" x="155.499969"/>
      <use xlink:href="#STIXGeneral-Regular-72" x="199.899963"/>
     </g>
     <!-- (Easy Qs) -->
     <g transform="translate(670.593313 297.75475) scale(0.12 -0.12)">
      <use xlink:href="#STIXGeneral-Regular-28"/>
      <use xlink:href="#STIXGeneral-Regular-45" x="33.299988"/>
      <use xlink:href="#STIXGeneral-Regular-61" x="94.399979"/>
      <use xlink:href="#STIXGeneral-Regular-73" x="138.799973"/>
      <use xlink:href="#STIXGeneral-Regular-79" x="177.699966"/>
      <use xlink:href="#STIXGeneral-Regular-20" x="227.699951"/>
      <use xlink:href="#STIXGeneral-Regular-51" x="252.699936"/>
      <use xlink:href="#STIXGeneral-Regular-73" x="324.899918"/>
      <use xlink:href="#STIXGeneral-Regular-29" x="363.799911"/>
     </g>
    </g>
   </g>
   <g id="matplotlib.axis_8">
    <g id="ytick_21">
     <g id="line2d_52">
      <path d="M 611.239752 237.84 
L 777.6 237.84 
" clip-path="url(#pc87017fff2)" style="fill: none; stroke-dasharray: 1.85,0.8; stroke-dashoffset: 0; stroke: #b1afb5; stroke-opacity: 0.5; stroke-width: 0.5"/>
     </g>
     <g id="line2d_53">
      <g>
       <use xlink:href="#m6f60b5c028" x="611.239752" y="237.84" style="fill: #323034; stroke: #323034; stroke-width: 0.8"/>
      </g>
     </g>
    </g>
    <g id="ytick_22">
     <g id="line2d_54">
      <path d="M 611.239752 200.88 
L 777.6 200.88 
" clip-path="url(#pc87017fff2)" style="fill: none; stroke-dasharray: 1.85,0.8; stroke-dashoffset: 0; stroke: #b1afb5; stroke-opacity: 0.5; stroke-width: 0.5"/>
     </g>
     <g id="line2d_55">
      <g>
       <use xlink:href="#m6f60b5c028" x="611.239752" y="200.88" style="fill: #323034; stroke: #323034; stroke-width: 0.8"/>
      </g>
     </g>
    </g>
    <g id="ytick_23">
     <g id="line2d_56">
      <path d="M 611.239752 163.92 
L 777.6 163.92 
" clip-path="url(#pc87017fff2)" style="fill: none; stroke-dasharray: 1.85,0.8; stroke-dashoffset: 0; stroke: #b1afb5; stroke-opacity: 0.5; stroke-width: 0.5"/>
     </g>
     <g id="line2d_57">
      <g>
       <use xlink:href="#m6f60b5c028" x="611.239752" y="163.92" style="fill: #323034; stroke: #323034; stroke-width: 0.8"/>
      </g>
     </g>
    </g>
    <g id="ytick_24">
     <g id="line2d_58">
      <path d="M 611.239752 126.96 
L 777.6 126.96 
" clip-path="url(#pc87017fff2)" style="fill: none; stroke-dasharray: 1.85,0.8; stroke-dashoffset: 0; stroke: #b1afb5; stroke-opacity: 0.5; stroke-width: 0.5"/>
     </g>
     <g id="line2d_59">
      <g>
       <use xlink:href="#m6f60b5c028" x="611.239752" y="126.96" style="fill: #323034; stroke: #323034; stroke-width: 0.8"/>
      </g>
     </g>
    </g>
    <g id="ytick_25">
     <g id="line2d_60">
      <path d="M 611.239752 90 
L 777.6 90 
" clip-path="url(#pc87017fff2)" style="fill: none; stroke-dasharray: 1.85,0.8; stroke-dashoffset: 0; stroke: #b1afb5; stroke-opacity: 0.5; stroke-width: 0.5"/>
     </g>
     <g id="line2d_61">
      <g>
       <use xlink:href="#m6f60b5c028" x="611.239752" y="90" style="fill: #323034; stroke: #323034; stroke-width: 0.8"/>
      </g>
     </g>
    </g>
    <g id="ytick_26">
     <g id="line2d_62">
      <path d="M 611.239752 53.04 
L 777.6 53.04 
" clip-path="url(#pc87017fff2)" style="fill: none; stroke-dasharray: 1.85,0.8; stroke-dashoffset: 0; stroke: #b1afb5; stroke-opacity: 0.5; stroke-width: 0.5"/>
     </g>
     <g id="line2d_63">
      <g>
       <use xlink:href="#m6f60b5c028" x="611.239752" y="53.04" style="fill: #323034; stroke: #323034; stroke-width: 0.8"/>
      </g>
     </g>
    </g>
   </g>
   <g id="line2d_64">
    <path d="M 632.034783 224.69523 
L 636.193789 209.230795 
L 640.352795 182.941255 
L 644.511801 176.755481 
L 648.670807 176.755481 
L 652.829814 138.094393 
L 656.98882 116.444184 
L 661.147826 104.072636 
L 665.306832 90.154644 
L 669.465839 87.061757 
L 673.624845 65.411548 
L 677.783851 60.772218 
L 681.942857 59.225774 
L 686.101863 56.132887 
L 690.26087 56.132887 
L 694.419876 59.225774 
L 698.578882 59.225774 
L 702.737888 59.225774 
L 706.896894 59.225774 
L 711.055901 59.225774 
L 715.214907 60.772218 
L 719.373913 60.772218 
L 723.532919 60.772218 
L 727.691925 62.318661 
L 731.850932 60.772218 
L 736.009938 60.772218 
L 740.168944 60.772218 
L 744.32795 62.318661 
L 748.486957 62.318661 
L 752.645963 60.772218 
L 756.804969 60.772218 
L 760.963975 62.318661 
" clip-path="url(#pc87017fff2)" style="fill: none; stroke: #1d99e1; stroke-width: 2; stroke-linecap: square"/>
   </g>
   <g id="line2d_65">
    <path d="M 632.034783 226.241674 
L 636.193789 209.230795 
L 640.352795 182.941255 
L 644.511801 178.301925 
L 648.670807 172.116151 
L 652.829814 139.640837 
L 656.98882 117.990628 
L 661.147826 114.897741 
L 665.306832 94.793975 
L 669.465839 94.793975 
L 673.624845 73.143766 
L 677.783851 59.225774 
L 681.942857 57.679331 
L 686.101863 57.679331 
L 690.26087 57.679331 
L 694.419876 59.225774 
L 698.578882 60.772218 
L 702.737888 65.411548 
L 706.896894 63.865105 
L 711.055901 66.957992 
L 715.214907 66.957992 
L 719.373913 65.411548 
L 723.532919 63.865105 
L 727.691925 63.865105 
L 731.850932 63.865105 
L 736.009938 63.865105 
L 740.168944 63.865105 
L 744.32795 65.411548 
L 748.486957 63.865105 
L 752.645963 66.957992 
L 756.804969 65.411548 
L 760.963975 65.411548 
" clip-path="url(#pc87017fff2)" style="fill: none; stroke: #cc8d00; stroke-width: 2; stroke-linecap: square"/>
   </g>
   <g id="line2d_66">
    <path d="M 632.034783 233.973891 
L 636.193789 224.69523 
L 640.352795 260.263431 
L 644.511801 246.345439 
L 648.670807 233.973891 
L 652.829814 216.963013 
L 656.98882 240.159665 
L 661.147826 246.345439 
L 665.306832 246.345439 
L 669.465839 246.345439 
L 673.624845 240.159665 
L 677.783851 82.422427 
L 681.942857 71.597322 
L 686.101863 68.504435 
L 690.26087 71.597322 
L 694.419876 66.957992 
L 698.578882 73.143766 
L 702.737888 71.597322 
L 706.896894 74.690209 
L 711.055901 62.318661 
L 715.214907 65.411548 
L 719.373913 65.411548 
L 723.532919 65.411548 
L 727.691925 105.619079 
L 731.850932 68.504435 
L 736.009938 62.318661 
L 740.168944 91.701088 
L 744.32795 60.772218 
L 748.486957 62.318661 
L 752.645963 63.865105 
L 756.804969 91.701088 
L 760.963975 195.312803 
" clip-path="url(#pc87017fff2)" style="fill: none; stroke: #a4d6f3; stroke-width: 2; stroke-linecap: square"/>
   </g>
   <g id="line2d_67">
    <path d="M 632.034783 246.345439 
L 636.193789 246.345439 
L 640.352795 247.891883 
L 644.511801 246.345439 
L 648.670807 247.891883 
L 652.829814 230.881004 
L 656.98882 230.881004 
L 661.147826 246.345439 
L 665.306832 247.891883 
L 669.465839 223.148787 
L 673.624845 111.804854 
L 677.783851 99.433305 
L 681.942857 79.32954 
L 686.101863 79.32954 
L 690.26087 63.865105 
L 694.419876 62.318661 
L 698.578882 63.865105 
L 702.737888 60.772218 
L 706.896894 63.865105 
L 711.055901 94.793975 
L 715.214907 68.504435 
L 719.373913 65.411548 
L 723.532919 68.504435 
L 727.691925 70.050879 
L 731.850932 196.859247 
L 736.009938 70.050879 
L 740.168944 195.312803 
L 744.32795 60.772218 
L 748.486957 80.875983 
L 752.645963 93.247531 
L 756.804969 97.886862 
L 760.963975 212.323682 
" clip-path="url(#pc87017fff2)" style="fill: none; stroke: #ffcf65; stroke-width: 2; stroke-linecap: square"/>
   </g>
   <g id="line2d_68">
    <path d="M 611.239752 107.324051 
L 777.6 107.324051 
" clip-path="url(#pc87017fff2)" style="fill: none; stroke-dasharray: 7.4,3.2; stroke-dashoffset: 0; stroke: #e69f00; stroke-opacity: 0.5; stroke-width: 2"/>
   </g>
   <g id="line2d_69">
    <path d="M 611.239752 77.290133 
L 777.6 77.290133 
" clip-path="url(#pc87017fff2)" style="fill: none; stroke-dasharray: 7.4,3.2; stroke-dashoffset: 0; stroke: #56b4e9; stroke-opacity: 0.5; stroke-width: 2"/>
   </g>
   <g id="patch_25">
    <path d="M 611.239752 256.32 
L 611.239752 34.56 
" style="fill: none; stroke: #000000; stroke-width: 0.6; stroke-linejoin: miter; stroke-linecap: square"/>
   </g>
   <g id="patch_26">
    <path d="M 611.239752 256.32 
L 777.6 256.32 
" style="fill: none; stroke: #000000; stroke-width: 0.6; stroke-linejoin: miter; stroke-linecap: square"/>
   </g>
   <g id="line2d_70">
    <path d="M 686.101863 56.132887 
" clip-path="url(#pc87017fff2)" style="fill: none; stroke: #1d99e1; stroke-opacity: 0.5; stroke-width: 2; stroke-linecap: square"/>
    <g clip-path="url(#pc87017fff2)">
     <use xlink:href="#m44e2f2ba48" x="686.101863" y="56.132887" style="fill: #1d99e1; fill-opacity: 0.5; stroke: #000000; stroke-opacity: 0.5"/>
    </g>
   </g>
   <g id="line2d_71">
    <path d="M 681.942857 57.679331 
" clip-path="url(#pc87017fff2)" style="fill: none; stroke: #cc8d00; stroke-opacity: 0.5; stroke-width: 2; stroke-linecap: square"/>
    <g clip-path="url(#pc87017fff2)">
     <use xlink:href="#md5aebebd59" x="681.942857" y="57.679331" style="fill: #cc8d00; fill-opacity: 0.5; stroke: #000000; stroke-opacity: 0.5"/>
    </g>
   </g>
   <g id="line2d_72">
    <path d="M 744.32795 60.772218 
" clip-path="url(#pc87017fff2)" style="fill: none; stroke: #a4d6f3; stroke-opacity: 0.5; stroke-width: 2; stroke-linecap: square"/>
    <g clip-path="url(#pc87017fff2)">
     <use xlink:href="#mb2c0e701d3" x="744.32795" y="60.772218" style="fill: #a4d6f3; fill-opacity: 0.5; stroke: #000000; stroke-opacity: 0.5"/>
    </g>
   </g>
   <g id="line2d_73">
    <path d="M 702.737888 60.772218 
" clip-path="url(#pc87017fff2)" style="fill: none; stroke: #ffcf65; stroke-opacity: 0.5; stroke-width: 2; stroke-linecap: square"/>
    <g clip-path="url(#pc87017fff2)">
     <use xlink:href="#m390b5c4de3" x="702.737888" y="60.772218" style="fill: #ffcf65; fill-opacity: 0.5; stroke: #000000; stroke-opacity: 0.5"/>
    </g>
   </g>
  </g>
 </g>
 <defs>
  <clipPath id="p6d711fbac5">
   <rect x="108" y="34.56" width="83.180124" height="221.76"/>
  </clipPath>
  <clipPath id="p8979a607d4">
   <rect x="220.293168" y="34.56" width="166.360248" height="221.76"/>
  </clipPath>
  <clipPath id="pb9ce899b7c">
   <rect x="415.76646" y="34.56" width="166.360248" height="221.76"/>
  </clipPath>
  <clipPath id="pc87017fff2">
   <rect x="611.239752" y="34.56" width="166.360248" height="221.76"/>
  </clipPath>
 </defs>
</svg>
